{
.appVersion = "1264";
classes = (
{
code = "aa-wcho a-wcho ba-wcho ca-wcho da-wcho ga-wcho ya-wcho pha-wcho la-wcho na-wcho pa-wcho ta-wcho tha-wcho fa-wcho sa-wcho sha-wcho ja-wcho za-wcho wa-wcho va-wcho ka-wcho o-wcho au-wcho ra-wcho ma-wcho kha-wcho ha-wcho e-wcho i-wcho nga-wcho u-wcho llha-wcho tsa-wcho tra-wcho ong-wcho aang-wcho ang-wcho ing-wcho on-wcho en-wcho aan-wcho nya-wcho uen-wcho yih-wcho zero-wcho one-wcho two-wcho three-wcho four-wcho five-wcho six-wcho seven-wcho eight-wcho nine-wcho ngunSign-wcho";
name = ALL_WANCHO;
}
);
copyright = "Copyright 2019 Google Inc. All Rights Reserved.";
customParameters = (
{
name = glyphOrder;
value = (
.notdef,
NULL,
CR,
space,
uni00A0,
dotted_circle,
"aa-wcho",
"a-wcho",
"ba-wcho",
"ca-wcho",
"da-wcho",
"ga-wcho",
"ya-wcho",
"pha-wcho",
"la-wcho",
"na-wcho",
"pa-wcho",
"ta-wcho",
"tha-wcho",
"fa-wcho",
"sa-wcho",
"sha-wcho",
"ja-wcho",
"za-wcho",
"wa-wcho",
"va-wcho",
"ka-wcho",
"o-wcho",
"au-wcho",
"ra-wcho",
"ma-wcho",
"kha-wcho",
"ha-wcho",
"e-wcho",
"i-wcho",
"nga-wcho",
"u-wcho",
"llha-wcho",
"tsa-wcho",
"tra-wcho",
"ong-wcho",
"aang-wcho",
"ang-wcho",
"ing-wcho",
"on-wcho",
"en-wcho",
"aan-wcho",
"nya-wcho",
"uen-wcho",
"yih-wcho",
"tup-wcho",
"tupni-wcho",
"koi-wcho",
"koini-wcho",
"zero-wcho",
"one-wcho",
"two-wcho",
"three-wcho",
"four-wcho",
"five-wcho",
"six-wcho",
"seven-wcho",
"eight-wcho",
"nine-wcho",
"ngunSign-wcho",
period,
period.wcho,
comma,
comma.wcho,
slash,
slash.wcho,
backslash,
backslash.wcho,
parenleft,
parenleft.wcho,
parenright,
parenright.wcho,
braceleft,
braceleft.wcho,
braceright,
braceright.wcho,
bracketleft,
bracketleft.wcho,
bracketright,
bracketright.wcho,
quotedblleft,
quotedblleft.wcho,
quotedblright,
quotedblright.wcho,
quotedbl,
quotedbl.wcho,
quotesingle,
quotesingle.wcho,
hyphen,
hyphen.wcho
);
},
{
name = description;
value = "Designed by Monotype design team.";
},
{
name = license;

glyphs = (
{
glyphname = .notdef;
lastChange = "2019-10-24 14:07:37 +0000";
layers = (
{
layerId = "86E3F33C-DCF9-4D35-94DC-2B1D8FB2A627";
paths = (
{
closed = 1;
nodes = (
"505 0 LINE",
"505 714 LINE",
"94 714 LINE",
"94 0 LINE"
);
},
{
closed = 1;
nodes = (
"145 663 LINE",
"454 663 LINE",
"454 51 LINE",
"145 51 LINE"
);
}
);
width = 600;
}
);
script = "";
category = Separator;
subCategory = Other;
},
{
glyphname = dotted_circle;
production = uni25CC;
lastChange = "2019-10-24 14:07:37 +0000";
layers = (
{
anchors = (
{
name = top;
position = "{297, 606}";
}
);
layerId = "86E3F33C-DCF9-4D35-94DC-2B1D8FB2A627";
paths = (
{
closed = 1;
nodes = (
"199 522 OFFCURVE",
"187 510 OFFCURVE",
"187 496 CURVE SMOOTH",
"187 482 OFFCURVE",
"199 470 OFFCURVE",
"213 470 CURVE SMOOTH",
"227 470 OFFCURVE",
"239 482 OFFCURVE",
"239 496 CURVE SMOOTH",
"239 510 OFFCURVE",
"227 522 OFFCURVE",
"213 522 CURVE SMOOTH"
);
},
{
closed = 1;
nodes = (
"367 522 OFFCURVE",
"355 510 OFFCURVE",
"355 496 CURVE SMOOTH",
"355 482 OFFCURVE",
"367 470 OFFCURVE",
"381 470 CURVE SMOOTH",
"395 470 OFFCURVE",
"407 482 OFFCURVE",
"407 496 CURVE SMOOTH",
"407 510 OFFCURVE",
"395 522 OFFCURVE",
"381 522 CURVE SMOOTH"
);
},
{
closed = 1;
nodes = (
"199 112 OFFCURVE",
"187 100 OFFCURVE",
"187 86 CURVE SMOOTH",
"187 72 OFFCURVE",
"199 60 OFFCURVE",
"213 60 CURVE SMOOTH",
"227 60 OFFCURVE",
"239 72 OFFCURVE",
"239 86 CURVE SMOOTH",
"239 100 OFFCURVE",
"227 112 OFFCURVE",
"213 112 CURVE SMOOTH"
);
},
{
closed = 1;
nodes = (
"367 112 OFFCURVE",
"355 100 OFFCURVE",
"355 86 CURVE SMOOTH",
"355 72 OFFCURVE",
"367 60 OFFCURVE",
"381 60 CURVE SMOOTH",
"395 60 OFFCURVE",
"407 72 OFFCURVE",
"407 86 CURVE SMOOTH",
"407 100 OFFCURVE",
"395 112 OFFCURVE",
"381 112 CURVE SMOOTH"
);
},
{
closed = 1;
nodes = (
"283 540 OFFCURVE",
"271 528 OFFCURVE",
"271 514 CURVE SMOOTH",
"271 500 OFFCURVE",
"283 488 OFFCURVE",
"297 488 CURVE SMOOTH",
"311 488 OFFCURVE",
"323 500 OFFCURVE",
"323 514 CURVE SMOOTH",
"323 528 OFFCURVE",
"311 540 OFFCURVE",
"297 540 CURVE SMOOTH"
);
},
{
closed = 1;
nodes = (
"283 94 OFFCURVE",
"271 82 OFFCURVE",
"271 68 CURVE SMOOTH",
"271 54 OFFCURVE",
"283 42 OFFCURVE",
"297 42 CURVE SMOOTH",
"311 42 OFFCURVE",
"323 54 OFFCURVE",
"323 68 CURVE SMOOTH",
"323 82 OFFCURVE",
"311 94 OFFCURVE",
"297 94 CURVE SMOOTH"
);
},
{
closed = 1;
nodes = (
"48 277 OFFCURVE",
"60 265 OFFCURVE",
"74 265 CURVE SMOOTH",
"88 265 OFFCURVE",
"100 277 OFFCURVE",
"100 291 CURVE SMOOTH",
"100 305 OFFCURVE",
"88 317 OFFCURVE",
"74 317 CURVE SMOOTH",
"60 317 OFFCURVE",
"48 305 OFFCURVE",
"48 291 CURVE SMOOTH"
);
},
{
closed = 1;
nodes = (
"494 277 OFFCURVE",
"506 265 OFFCURVE",
"520 265 CURVE SMOOTH",
"534 265 OFFCURVE",
"546 277 OFFCURVE",
"546 291 CURVE SMOOTH",
"546 305 OFFCURVE",
"534 317 OFFCURVE",
"520 317 CURVE SMOOTH",
"506 317 OFFCURVE",
"494 305 OFFCURVE",
"494 291 CURVE SMOOTH"
);
},
{
closed = 1;
nodes = (
"113 119 OFFCURVE",
"125 107 OFFCURVE",
"139 107 CURVE SMOOTH",
"153 107 OFFCURVE",
"165 119 OFFCURVE",
"165 133 CURVE SMOOTH",
"165 147 OFFCURVE",
"153 159 OFFCURVE",
"139 159 CURVE SMOOTH",
"125 159 OFFCURVE",
"113 147 OFFCURVE",
"113 133 CURVE SMOOTH"
);
},
{
closed = 1;
nodes = (
"113 435 OFFCURVE",
"125 423 OFFCURVE",
"139 423 CURVE SMOOTH",
"153 423 OFFCURVE",
"165 435 OFFCURVE",
"165 449 CURVE SMOOTH",
"165 463 OFFCURVE",
"153 475 OFFCURVE",
"139 475 CURVE SMOOTH",
"125 475 OFFCURVE",
"113 463 OFFCURVE",
"113 449 CURVE SMOOTH"
);
},
{
closed = 1;
nodes = (
"429 119 OFFCURVE",
"441 107 OFFCURVE",
"455 107 CURVE SMOOTH",
"469 107 OFFCURVE",
"481 119 OFFCURVE",
"481 133 CURVE SMOOTH",
"481 147 OFFCURVE",
"469 159 OFFCURVE",
"455 159 CURVE SMOOTH",
"441 159 OFFCURVE",
"429 147 OFFCURVE",
"429 133 CURVE SMOOTH"
);
},
{
closed = 1;
nodes = (
"429 435 OFFCURVE",
"441 423 OFFCURVE",
"455 423 CURVE SMOOTH",
"469 423 OFFCURVE",
"481 435 OFFCURVE",
"481 449 CURVE SMOOTH",
"481 463 OFFCURVE",
"469 475 OFFCURVE",
"455 475 CURVE SMOOTH",
"441 475 OFFCURVE",
"429 463 OFFCURVE",
"429 449 CURVE SMOOTH"
);
},
{
closed = 1;
nodes = (
"66 193 OFFCURVE",
"78 181 OFFCURVE",
"92 181 CURVE SMOOTH",
"106 181 OFFCURVE",
"118 193 OFFCURVE",
"118 207 CURVE SMOOTH",
"118 221 OFFCURVE",
"106 233 OFFCURVE",
"92 233 CURVE SMOOTH",
"78 233 OFFCURVE",
"66 221 OFFCURVE",
"66 207 CURVE SMOOTH"
);
},
{
closed = 1;
nodes = (
"66 361 OFFCURVE",
"78 349 OFFCURVE",
"92 349 CURVE SMOOTH",
"106 349 OFFCURVE",
"118 361 OFFCURVE",
"118 375 CURVE SMOOTH",
"118 389 OFFCURVE",
"106 401 OFFCURVE",
"92 401 CURVE SMOOTH",
"78 401 OFFCURVE",
"66 389 OFFCURVE",
"66 375 CURVE SMOOTH"
);
},
{
closed = 1;
nodes = (
"476 193 OFFCURVE",
"488 181 OFFCURVE",
"502 181 CURVE SMOOTH",
"516 181 OFFCURVE",
"528 193 OFFCURVE",
"528 207 CURVE SMOOTH",
"528 221 OFFCURVE",
"516 233 OFFCURVE",
"502 233 CURVE SMOOTH",
"488 233 OFFCURVE",
"476 221 OFFCURVE",
"476 207 CURVE SMOOTH"
);
},
{
closed = 1;
nodes = (
"476 361 OFFCURVE",
"488 349 OFFCURVE",
"502 349 CURVE SMOOTH",
"516 349 OFFCURVE",
"528 361 OFFCURVE",
"528 375 CURVE SMOOTH",
"528 389 OFFCURVE",
"516 401 OFFCURVE",
"502 401 CURVE SMOOTH",
"488 401 OFFCURVE",
"476 389 OFFCURVE",
"476 375 CURVE SMOOTH"
);
}
);
width = 594;
}
);
unicode = 25CC;
script = "";
category = Symbol;
subCategory = Geometry;
},
{
glyphname = "aa-wcho";
production = u1E2C0;
lastChange = "2019-10-24 14:07:37 +0000";
layers = (
{
anchors = (
{
name = top;
position = "{257, 660}";
}
);
layerId = "86E3F33C-DCF9-4D35-94DC-2B1D8FB2A627";
paths = (
{
closed = 1;
nodes = (
"92 0 LINE",
"314 553 LINE SMOOTH",
"357 660 OFFCURVE",
"300 720 OFFCURVE",
"225 720 CURVE SMOOTH",
"146 720 OFFCURVE",
"82 656 OFFCURVE",
"82 575 CURVE SMOOTH",
"82 456 OFFCURVE",
"182 396 OFFCURVE",
"301 396 CURVE SMOOTH",
"402 396 OFFCURVE",
"513 437 OFFCURVE",
"579 494 CURVE",
"550 502 LINE",
"351 0 LINE",
"423 0 LINE",
"649 566 LINE",
"577 566 LINE",
"535 527 OFFCURVE",
"431 461 OFFCURVE",
"296 461 CURVE SMOOTH",
"196 461 OFFCURVE",
"154 512 OFFCURVE",
"154 574 CURVE SMOOTH",
"154 629 OFFCURVE",
"187 655 OFFCURVE",
"217 655 CURVE SMOOTH",
"248 655 OFFCURVE",
"270 627 OFFCURVE",
"246 566 CURVE SMOOTH",
"20 0 LINE"
);
}
);
width = 649;
}
);
leftKerningGroup = AA;
rightKerningGroup = AA;
unicode = 1E2C0;
script = wcho;
category = Letter;
subCategory = Other;
},
{
glyphname = "a-wcho";
production = u1E2C1;
lastChange = "2019-10-24 14:07:37 +0000";
layers = (
{
anchors = (
{
name = top;
position = "{257, 660}";
}
);
layerId = "86E3F33C-DCF9-4D35-94DC-2B1D8FB2A627";
paths = (
{
closed = 1;
nodes = (
"92 0 LINE",
"314 553 LINE SMOOTH",
"357 660 OFFCURVE",
"300 720 OFFCURVE",
"225 720 CURVE SMOOTH",
"146 720 OFFCURVE",
"82 656 OFFCURVE",
"82 575 CURVE SMOOTH",
"82 456 OFFCURVE",
"182 396 OFFCURVE",
"301 396 CURVE SMOOTH",
"402 396 OFFCURVE",
"513 437 OFFCURVE",
"579 494 CURVE",
"550 502 LINE",
"351 0 LINE",
"423 0 LINE",
"649 566 LINE",
"577 566 LINE",
"535 527 OFFCURVE",
"431 461 OFFCURVE",
"296 461 CURVE SMOOTH",
"196 461 OFFCURVE",
"154 512 OFFCURVE",
"154 574 CURVE SMOOTH",
"154 629 OFFCURVE",
"187 655 OFFCURVE",
"217 655 CURVE SMOOTH",
"248 655 OFFCURVE",
"270 627 OFFCURVE",
"246 566 CURVE SMOOTH",
"20 0 LINE"
);
},
{
closed = 1;
nodes = (
"343 209 OFFCURVE",
"363 227 OFFCURVE",
"363 273 CURVE SMOOTH",
"363 314 OFFCURVE",
"346 333 OFFCURVE",
"318 333 CURVE SMOOTH",
"288 333 OFFCURVE",
"271 311 OFFCURVE",
"271 273 CURVE SMOOTH",
"271 227 OFFCURVE",
"286 209 OFFCURVE",
"318 209 CURVE"
);
}
);
width = 649;
}
);
leftKerningGroup = AA;
leftMetricsKey = "aa-wcho";
rightKerningGroup = AA;
rightMetricsKey = "aa-wcho";
unicode = 1E2C1;
script = wcho;
category = Letter;
subCategory = Other;
},
{
glyphname = "ba-wcho";
production = u1E2C2;
lastChange = "2019-10-24 14:07:37 +0000";
layers = (
{
anchors = (
{
name = top;
position = "{414, 660}";
}
);
layerId = "86E3F33C-DCF9-4D35-94DC-2B1D8FB2A627";
paths = (
{
closed = 1;
nodes = (
"187 0 LINE",
"490 660 LINE",
"462 717 LINE",
"455 718 OFFCURVE",
"441 720 OFFCURVE",
"416 720 CURVE SMOOTH",
"253 720 OFFCURVE",
"50 586 OFFCURVE",
"50 332 CURVE SMOOTH",
"50 70 OFFCURVE",
"235 -10 OFFCURVE",
"372 -10 CURVE SMOOTH",
"510 -10 OFFCURVE",
"583 72 OFFCURVE",
"583 158 CURVE SMOOTH",
"583 235 OFFCURVE",
"524 289 OFFCURVE",
"425 289 CURVE SMOOTH",
"419 289 OFFCURVE",
"414 289 OFFCURVE",
"408 289 CURVE",
"408 224 LINE",
"413 224 OFFCURVE",
"417 224 OFFCURVE",
"421 224 CURVE SMOOTH",
"477 224 OFFCURVE",
"511 194 OFFCURVE",
"511 155 CURVE SMOOTH",
"511 112 OFFCURVE",
"468 55 OFFCURVE",
"369 55 CURVE SMOOTH",
"274 55 OFFCURVE",
"122 106 OFFCURVE",
"122 329 CURVE SMOOTH",
"122 540 OFFCURVE",
"290 657 OFFCURVE",
"431 657 CURVE SMOOTH",
"432 657 OFFCURVE",
"434 657 OFFCURVE",
"439 657 CURVE",
"444 656 OFFCURVE",
"449 656 OFFCURVE",
"452 656 CURVE",
"438 703 LINE",
"115 0 LINE"
);
}
);
width = 633;
}
);
unicode = 1E2C2;
script = wcho;
category = Letter;
subCategory = Other;
},
{
glyphname = "ca-wcho";
production = u1E2C3;
lastChange = "2019-10-24 14:07:37 +0000";
layers = (
{
anchors = (
{
name = top;
position = "{483, 660}";
}
);
layerId = "86E3F33C-DCF9-4D35-94DC-2B1D8FB2A627";
paths = (
{
closed = 1;
nodes = (
"97 0 LINE",
"290 483 LINE",
"245 455 LINE",
"240 346 OFFCURVE",
"334 236 OFFCURVE",
"485 236 CURVE SMOOTH",
"598 236 OFFCURVE",
"683 301 OFFCURVE",
"683 397 CURVE SMOOTH",
"683 467 OFFCURVE",
"636 516 OFFCURVE",
"563 516 CURVE SMOOTH",
"521 516 OFFCURVE",
"480 499 OFFCURVE",
"451 471 CURVE",
"489 421 LINE",
"508 438 OFFCURVE",
"530 447 OFFCURVE",
"553 447 CURVE SMOOTH",
"589 447 OFFCURVE",
"611 423 OFFCURVE",
"611 391 CURVE SMOOTH",
"611 336 OFFCURVE",
"545 301 OFFCURVE",
"481 301 CURVE SMOOTH",
"369 301 OFFCURVE",
"317 404 OFFCURVE",
"317 489 CURVE SMOOTH",
"317 583 OFFCURVE",
"382 655 OFFCURVE",
"478 655 CURVE SMOOTH",
"533 655 OFFCURVE",
"583 633 OFFCURVE",
"622 584 CURVE",
"671 634 LINE",
"617 695 OFFCURVE",
"556 720 OFFCURVE",
"478 720 CURVE SMOOTH",
"377 720 OFFCURVE",
"294 675 OFFCURVE",
"248 559 CURVE SMOOTH",
"25 0 LINE"
);
}
);
width = 733;
}
);
leftKerningGroup = CA;
unicode = 1E2C3;
script = wcho;
category = Letter;
subCategory = Other;
},
{
glyphname = "da-wcho";
production = u1E2C4;
lastChange = "2019-10-24 14:07:37 +0000";
layers = (
{
anchors = (
{
name = top;
position = "{241, 660}";
}
);
layerId = "86E3F33C-DCF9-4D35-94DC-2B1D8FB2A627";
paths = (
{
closed = 1;
nodes = (
"331 -10 OFFCURVE",
"413 61 OFFCURVE",
"413 160 CURVE",
"341 160 LINE",
"341 118 OFFCURVE",
"316 55 OFFCURVE",
"227 55 CURVE SMOOTH",
"178 55 OFFCURVE",
"122 75 OFFCURVE",
"122 141 CURVE SMOOTH",
"122 191 OFFCURVE",
"152 233 OFFCURVE",
"196 294 CURVE SMOOTH",
"309 449 OFFCURVE",
"384 529 OFFCURVE",
"384 609 CURVE SMOOTH",
"384 666 OFFCURVE",
"336 720 OFFCURVE",
"243 720 CURVE SMOOTH",
"138 720 OFFCURVE",
"74 657 OFFCURVE",
"74 581 CURVE SMOOTH",
"74 482 OFFCURVE",
"182 415 OFFCURVE",
"342 415 CURVE SMOOTH",
"396 415 OFFCURVE",
"434 423 OFFCURVE",
"457 429 CURVE",
"440 493 LINE",
"421 487 OFFCURVE",
"392 480 OFFCURVE",
"342 480 CURVE SMOOTH",
"229 480 OFFCURVE",
"146 515 OFFCURVE",
"146 580 CURVE SMOOTH",
"146 626 OFFCURVE",
"188 655 OFFCURVE",
"238 655 CURVE SMOOTH",
"283 655 OFFCURVE",
"312 631 OFFCURVE",
"312 599 CURVE SMOOTH",
"312 555 OFFCURVE",
"258 502 OFFCURVE",
"138 334 CURVE SMOOTH",
"76 247 OFFCURVE",
"50 191 OFFCURVE",
"50 132 CURVE SMOOTH",
"50 46 OFFCURVE",
"109 -10 OFFCURVE",
"213 -10 CURVE SMOOTH"
);
}
);
width = 497;
}
);
unicode = 1E2C4;
script = wcho;
category = Letter;
subCategory = Other;
},
{
glyphname = "ga-wcho";
production = u1E2C5;
lastChange = "2019-10-24 14:07:37 +0000";
layers = (
{
anchors = (
{
name = top;
position = "{292, 660}";
}
);
layerId = "86E3F33C-DCF9-4D35-94DC-2B1D8FB2A627";
paths = (
{
closed = 1;
nodes = (
"65 58 OFFCURVE",
"150 -10 OFFCURVE",
"286 -10 CURVE SMOOTH",
"431 -10 OFFCURVE",
"514 70 OFFCURVE",
"514 159 CURVE SMOOTH",
"514 233 OFFCURVE",
"455 282 OFFCURVE",
"356 282 CURVE SMOOTH",
"339 282 LINE",
"339 222 LINE",
"352 222 LINE SMOOTH",
"408 222 OFFCURVE",
"442 190 OFFCURVE",
"442 153 CURVE SMOOTH",
"442 108 OFFCURVE",
"393 55 OFFCURVE",
"289 55 CURVE SMOOTH",
"199 55 OFFCURVE",
"138 90 OFFCURVE",
"103 122 CURVE",
"342 720 LINE",
"270 720 LINE",
"25 109 LINE"
);
}
);
width = 564;
}
);
unicode = 1E2C5;
script = wcho;
category = Letter;
subCategory = Other;
},
{
glyphname = "ya-wcho";
production = u1E2C6;
lastChange = "2019-10-24 14:07:37 +0000";
layers = (
{
anchors = (
{
name = top;
position = "{354, 660}";
}
);
layerId = "86E3F33C-DCF9-4D35-94DC-2B1D8FB2A627";
paths = (
{
closed = 1;
nodes = (
"435 0 LINE",
"435 65 LINE",
"365 72 OFFCURVE",
"331 102 OFFCURVE",
"331 153 CURVE SMOOTH",
"331 190 OFFCURVE",
"359 225 OFFCURVE",
"411 225 CURVE SMOOTH",
"426 225 OFFCURVE",
"439 222 OFFCURVE",
"450 215 CURVE",
"478 276 LINE",
"460 285 OFFCURVE",
"439 290 OFFCURVE",
"415 290 CURVE SMOOTH",
"325 290 OFFCURVE",
"264 226 OFFCURVE",
"264 153 CURVE SMOOTH",
"264 72 OFFCURVE",
"315 36 OFFCURVE",
"413 19 CURVE",
"413 65 LINE",
"105 65 LINE",
"400 710 LINE",
"328 710 LINE",
"25 51 LINE",
"49 0 LINE"
);
}
);
width = 528;
}
);
unicode = 1E2C6;
script = wcho;
category = Letter;
subCategory = Other;
},
{
glyphname = "pha-wcho";
production = u1E2C7;
lastChange = "2019-10-24 14:07:37 +0000";
layers = (
{
anchors = (
{
name = top;
position = "{405, 660}";
}
);
layerId = "86E3F33C-DCF9-4D35-94DC-2B1D8FB2A627";
paths = (
{
closed = 1;
nodes = (
"613 -10 OFFCURVE",
"758 136 OFFCURVE",
"758 366 CURVE SMOOTH",
"758 599 OFFCURVE",
"656 720 OFFCURVE",
"477 720 CURVE SMOOTH",
"357 720 OFFCURVE",
"241 620 OFFCURVE",
"241 512 CURVE SMOOTH",
"241 412 OFFCURVE",
"316 348 OFFCURVE",
"397 348 CURVE SMOOTH",
"481 348 OFFCURVE",
"560 420 OFFCURVE",
"560 513 CURVE SMOOTH",
"560 618 OFFCURVE",
"458 720 OFFCURVE",
"340 720 CURVE SMOOTH",
"164 720 OFFCURVE",
"50 596 OFFCURVE",
"50 367 CURVE SMOOTH",
"50 137 OFFCURVE",
"178 -10 OFFCURVE",
"401 -10 CURVE SMOOTH"
);
},
{
closed = 1;
nodes = (
"408 655 OFFCURVE",
"488 595 OFFCURVE",
"488 511 CURVE SMOOTH",
"488 445 OFFCURVE",
"443 408 OFFCURVE",
"399 408 CURVE SMOOTH",
"357 408 OFFCURVE",
"313 445 OFFCURVE",
"313 511 CURVE SMOOTH",
"313 595 OFFCURVE",
"388 655 OFFCURVE",
"471 655 CURVE SMOOTH",
"592 655 OFFCURVE",
"686 569 OFFCURVE",
"686 366 CURVE SMOOTH",
"686 163 OFFCURVE",
"560 55 OFFCURVE",
"401 55 CURVE SMOOTH",
"240 55 OFFCURVE",
"122 163 OFFCURVE",
"122 366 CURVE SMOOTH",
"122 560 OFFCURVE",
"209 655 OFFCURVE",
"333 655 CURVE SMOOTH"
);
}
);
width = 808;
}
);
leftKerningGroup = U;
rightKerningGroup = U;
unicode = 1E2C7;
script = wcho;
category = Letter;
subCategory = Other;
},
{
glyphname = "la-wcho";
production = u1E2C8;
lastChange = "2019-10-24 14:07:37 +0000";
layers = (
{
anchors = (
{
name = top;
position = "{159, 660}";
}
);
layerId = "86E3F33C-DCF9-4D35-94DC-2B1D8FB2A627";
paths = (
{
closed = 1;
nodes = (
"83 720 OFFCURVE",
"30 671 OFFCURVE",
"30 604 CURVE SMOOTH",
"30 510 OFFCURVE",
"125 433 OFFCURVE",
"261 433 CURVE SMOOTH",
"400 433 OFFCURVE",
"520 512 OFFCURVE",
"520 701 CURVE SMOOTH",
"520 710 LINE",
"448 710 LINE",
"448 691 LINE SMOOTH",
"448 561 OFFCURVE",
"361 498 OFFCURVE",
"251 498 CURVE SMOOTH",
"168 498 OFFCURVE",
"102 541 OFFCURVE",
"102 597 CURVE SMOOTH",
"102 631 OFFCURVE",
"124 655 OFFCURVE",
"153 655 CURVE SMOOTH",
"191 655 OFFCURVE",
"221 613 OFFCURVE",
"240 566 CURVE SMOOTH",
"466 0 LINE",
"538 0 LINE",
"299 596 LINE SMOOTH",
"266 678 OFFCURVE",
"224 720 OFFCURVE",
"149 720 CURVE SMOOTH"
);
}
);
width = 578;
}
);
unicode = 1E2C8;
script = wcho;
category = Letter;
subCategory = Other;
},
{
glyphname = "na-wcho";
production = u1E2C9;
lastChange = "2019-10-24 14:07:37 +0000";
layers = (
{
anchors = (
{
name = top;
position = "{344, 660}";
}
);
layerId = "86E3F33C-DCF9-4D35-94DC-2B1D8FB2A627";
paths = (
{
closed = 1;
nodes = (
"468 0 LINE",
"468 65 LINE",
"103 65 LINE",
"398 710 LINE",
"326 710 LINE",
"25 53 LINE",
"56 0 LINE"
);
}
);
width = 508;
}
);
unicode = 1E2C9;
script = wcho;
category = Letter;
subCategory = Other;
},
{
glyphname = "pa-wcho";
production = u1E2CA;
lastChange = "2019-10-24 14:07:37 +0000";
layers = (
{
anchors = (
{
name = top;
position = "{394, 660}";
}
);
layerId = "86E3F33C-DCF9-4D35-94DC-2B1D8FB2A627";
paths = (
{
closed = 1;
nodes = (
"97 0 LINE",
"392 632 LINE",
"394 632 LINE",
"394 0 LINE",
"461 0 LINE SMOOTH",
"540 0 OFFCURVE",
"601 38 OFFCURVE",
"634 75 CURVE",
"580 114 LINE",
"543 73 OFFCURVE",
"497 65 OFFCURVE",
"466 65 CURVE",
"466 710 LINE",
"355 710 LINE",
"25 0 LINE"
);
}
);
width = 653;
}
);
leftKerningGroup = CA;
unicode = 1E2CA;
script = wcho;
category = Letter;
subCategory = Other;
},
{
glyphname = "ta-wcho";
production = u1E2CB;
lastChange = "2019-10-24 14:07:37 +0000";
layers = (
{
anchors = (
{
name = top;
position = "{507, 660}";
}
);
layerId = "86E3F33C-DCF9-4D35-94DC-2B1D8FB2A627";
paths = (
{
closed = 1;
nodes = (
"310 -10 OFFCURVE",
"365 47 OFFCURVE",
"389 141 CURVE",
"322 157 LINE",
"313 111 OFFCURVE",
"281 55 OFFCURVE",
"224 55 CURVE SMOOTH",
"175 55 OFFCURVE",
"122 95 OFFCURVE",
"122 180 CURVE SMOOTH",
"122 288 OFFCURVE",
"214 341 OFFCURVE",
"333 384 CURVE SMOOTH",
"705 518 LINE",
"678 618 OFFCURVE",
"611 720 OFFCURVE",
"510 720 CURVE SMOOTH",
"467 720 OFFCURVE",
"423 701 OFFCURVE",
"389 673 CURVE SMOOTH",
"338 630 LINE SMOOTH",
"304 601 OFFCURVE",
"273 594 OFFCURVE",
"251 594 CURVE SMOOTH",
"201 594 OFFCURVE",
"165 628 OFFCURVE",
"155 671 CURVE",
"90 662 LINE",
"111 571 OFFCURVE",
"164 529 OFFCURVE",
"245 529 CURVE SMOOTH",
"293 529 OFFCURVE",
"334 543 OFFCURVE",
"375 577 CURVE SMOOTH",
"421 616 LINE SMOOTH",
"448 639 OFFCURVE",
"476 655 OFFCURVE",
"506 655 CURVE SMOOTH",
"547 655 OFFCURVE",
"586 624 OFFCURVE",
"615 555 CURVE",
"300 441 LINE SMOOTH",
"145 385 OFFCURVE",
"50 300 OFFCURVE",
"50 176 CURVE SMOOTH",
"50 67 OFFCURVE",
"127 -10 OFFCURVE",
"225 -10 CURVE SMOOTH"
);
}
);
width = 735;
}
);
unicode = 1E2CB;
script = wcho;
category = Letter;
subCategory = Other;
},
{
glyphname = "tha-wcho";
production = u1E2CC;
lastChange = "2019-10-24 14:07:37 +0000";
layers = (
{
anchors = (
{
name = top;
position = "{333, 660}";
}
);
layerId = "86E3F33C-DCF9-4D35-94DC-2B1D8FB2A627";
paths = (
{
closed = 1;
nodes = (
"244 436 OFFCURVE",
"217 498 OFFCURVE",
"217 548 CURVE SMOOTH",
"217 611 OFFCURVE",
"259 655 OFFCURVE",
"327 655 CURVE SMOOTH",
"389 655 OFFCURVE",
"416 607 OFFCURVE",
"416 533 CURVE SMOOTH",
"416 92 LINE",
"387 110 OFFCURVE",
"356 118 OFFCURVE",
"327 118 CURVE SMOOTH",
"254 118 OFFCURVE",
"203 65 OFFCURVE",
"150 65 CURVE SMOOTH",
"124 65 OFFCURVE",
"101 77 OFFCURVE",
"75 103 CURVE",
"30 57 LINE",
"61 17 OFFCURVE",
"102 0 OFFCURVE",
"144 0 CURVE SMOOTH",
"217 0 OFFCURVE",
"266 53 OFFCURVE",
"328 53 CURVE SMOOTH",
"360 53 OFFCURVE",
"399 38 OFFCURVE",
"421 0 CURVE",
"488 0 LINE",
"488 548 LINE SMOOTH",
"488 650 OFFCURVE",
"440 720 OFFCURVE",
"334 720 CURVE SMOOTH",
"214 720 OFFCURVE",
"145 635 OFFCURVE",
"145 546 CURVE SMOOTH",
"145 458 OFFCURVE",
"208 371 OFFCURVE",
"349 371 CURVE SMOOTH",
"505 371 OFFCURVE",
"555 453 OFFCURVE",
"588 513 CURVE SMOOTH",
"611 555 OFFCURVE",
"643 591 OFFCURVE",
"713 605 CURVE",
"713 670 LINE",
"593 658 OFFCURVE",
"552 584 OFFCURVE",
"528 539 CURVE SMOOTH",
"496 479 OFFCURVE",
"466 436 OFFCURVE",
"347 436 CURVE SMOOTH"
);
}
);
width = 703;
}
);
unicode = 1E2CC;
script = wcho;
category = Letter;
subCategory = Other;
},
{
glyphname = "fa-wcho";
production = u1E2CD;
lastChange = "2019-10-24 14:07:37 +0000";
layers = (
{
anchors = (
{
name = top;
position = "{354, 660}";
}
);
layerId = "86E3F33C-DCF9-4D35-94DC-2B1D8FB2A627";
paths = (
{
closed = 1;
nodes = (
"301 720 LINE",
"579 343 LINE",
"628 375 LINE",
"373 720 LINE"
);
},
{
closed = 1;
nodes = (
"772 325 LINE",
"772 390 LINE",
"20 390 LINE",
"20 325 LINE"
);
},
{
closed = 1;
nodes = (
"373 -3 LINE",
"628 342 LINE",
"579 374 LINE",
"301 -3 LINE"
);
}
);
width = 792;
}
);
unicode = 1E2CD;
script = wcho;
category = Letter;
subCategory = Other;
},
{
glyphname = "sa-wcho";
production = u1E2CE;
lastChange = "2019-10-24 14:07:37 +0000";
layers = (
{
anchors = (
{
name = top;
position = "{608, 660}";
}
);
layerId = "86E3F33C-DCF9-4D35-94DC-2B1D8FB2A627";
paths = (
{
closed = 1;
nodes = (
"223 -10 OFFCURVE",
"268 24 OFFCURVE",
"294 80 CURVE SMOOTH",
"521 573 LINE SMOOTH",
"545 625 OFFCURVE",
"567 655 OFFCURVE",
"606 655 CURVE SMOOTH",
"642 655 OFFCURVE",
"660 632 OFFCURVE",
"660 600 CURVE SMOOTH",
"660 538 OFFCURVE",
"596 495 OFFCURVE",
"493 495 CURVE SMOOTH",
"368 495 OFFCURVE",
"310 569 OFFCURVE",
"288 602 CURVE",
"240 555 LINE",
"267 521 OFFCURVE",
"346 430 OFFCURVE",
"494 430 CURVE SMOOTH",
"635 430 OFFCURVE",
"732 514 OFFCURVE",
"732 609 CURVE SMOOTH",
"732 667 OFFCURVE",
"697 720 OFFCURVE",
"611 720 CURVE SMOOTH",
"536 720 OFFCURVE",
"492 669 OFFCURVE",
"461 601 CURVE SMOOTH",
"233 107 LINE SMOOTH",
"215 67 OFFCURVE",
"189 55 OFFCURVE",
"170 55 CURVE SMOOTH",
"146 55 OFFCURVE",
"122 74 OFFCURVE",
"122 107 CURVE SMOOTH",
"122 141 OFFCURVE",
"144 177 OFFCURVE",
"195 177 CURVE SMOOTH",
"237 177 OFFCURVE",
"273 152 OFFCURVE",
"299 130 CURVE SMOOTH",
"361 78 OFFCURVE",
"416 -10 OFFCURVE",
"539 -10 CURVE SMOOTH",
"606 -10 OFFCURVE",
"674 18 OFFCURVE",
"740 60 CURVE",
"707 112 LINE",
"642 69 OFFCURVE",
"585 56 OFFCURVE",
"547 56 CURVE SMOOTH",
"447 56 OFFCURVE",
"393 139 OFFCURVE",
"337 186 CURVE SMOOTH",
"300 217 OFFCURVE",
"250 242 OFFCURVE",
"193 242 CURVE SMOOTH",
"105 242 OFFCURVE",
"50 179 OFFCURVE",
"50 106 CURVE SMOOTH",
"50 31 OFFCURVE",
"107 -10 OFFCURVE",
"167 -10 CURVE SMOOTH"
);
}
);
width = 780;
}
);
leftKerningGroup = SA;
rightKerningGroup = SA;
unicode = 1E2CE;
script = wcho;
category = Letter;
subCategory = Other;
},
{
glyphname = "sha-wcho";
production = u1E2CF;
lastChange = "2019-10-24 14:07:37 +0000";
layers = (
{
anchors = (
{
name = top;
position = "{608, 660}";
}
);
layerId = "86E3F33C-DCF9-4D35-94DC-2B1D8FB2A627";
paths = (
{
closed = 1;
nodes = (
"223 -10 OFFCURVE",
"268 24 OFFCURVE",
"294 80 CURVE SMOOTH",
"521 573 LINE SMOOTH",
"545 625 OFFCURVE",
"567 655 OFFCURVE",
"606 655 CURVE SMOOTH",
"642 655 OFFCURVE",
"660 632 OFFCURVE",
"660 600 CURVE SMOOTH",
"660 538 OFFCURVE",
"596 495 OFFCURVE",
"493 495 CURVE SMOOTH",
"368 495 OFFCURVE",
"310 569 OFFCURVE",
"288 602 CURVE",
"240 555 LINE",
"267 521 OFFCURVE",
"346 430 OFFCURVE",
"494 430 CURVE SMOOTH",
"635 430 OFFCURVE",
"732 514 OFFCURVE",
"732 609 CURVE SMOOTH",
"732 667 OFFCURVE",
"697 720 OFFCURVE",
"611 720 CURVE SMOOTH",
"536 720 OFFCURVE",
"492 669 OFFCURVE",
"461 601 CURVE SMOOTH",
"233 107 LINE SMOOTH",
"215 67 OFFCURVE",
"189 55 OFFCURVE",
"170 55 CURVE SMOOTH",
"146 55 OFFCURVE",
"122 74 OFFCURVE",
"122 107 CURVE SMOOTH",
"122 141 OFFCURVE",
"144 177 OFFCURVE",
"195 177 CURVE SMOOTH",
"237 177 OFFCURVE",
"273 152 OFFCURVE",
"299 130 CURVE SMOOTH",
"361 78 OFFCURVE",
"416 -10 OFFCURVE",
"539 -10 CURVE SMOOTH",
"606 -10 OFFCURVE",
"674 18 OFFCURVE",
"740 60 CURVE",
"707 112 LINE",
"642 69 OFFCURVE",
"585 56 OFFCURVE",
"547 56 CURVE SMOOTH",
"447 56 OFFCURVE",
"393 139 OFFCURVE",
"337 186 CURVE SMOOTH",
"300 217 OFFCURVE",
"250 242 OFFCURVE",
"193 242 CURVE SMOOTH",
"105 242 OFFCURVE",
"50 179 OFFCURVE",
"50 106 CURVE SMOOTH",
"50 31 OFFCURVE",
"107 -10 OFFCURVE",
"167 -10 CURVE SMOOTH"
);
},
{
closed = 1;
nodes = (
"542 214 OFFCURVE",
"562 232 OFFCURVE",
"562 278 CURVE SMOOTH",
"562 319 OFFCURVE",
"545 338 OFFCURVE",
"517 338 CURVE SMOOTH",
"487 338 OFFCURVE",
"470 316 OFFCURVE",
"470 278 CURVE SMOOTH",
"470 232 OFFCURVE",
"485 214 OFFCURVE",
"517 214 CURVE"
);
}
);
width = 780;
}
);
leftKerningGroup = SA;
leftMetricsKey = "sa-wcho";
rightKerningGroup = SA;
rightMetricsKey = "sa-wcho";
unicode = 1E2CF;
script = wcho;
category = Letter;
subCategory = Other;
},
{
glyphname = "ja-wcho";
production = u1E2D0;
lastChange = "2019-10-24 14:07:37 +0000";
layers = (
{
anchors = (
{
name = top;
position = "{216, 660}";
}
);
layerId = "86E3F33C-DCF9-4D35-94DC-2B1D8FB2A627";
paths = (
{
closed = 1;
nodes = (
"255 0 LINE",
"121 428 LINE",
"485 428 LINE",
"500 484 LINE",
"432 622 OFFCURVE",
"340 720 OFFCURVE",
"219 720 CURVE SMOOTH",
"135 720 OFFCURVE",
"86 670 OFFCURVE",
"64 605 CURVE",
"136 605 LINE",
"154 641 OFFCURVE",
"189 655 OFFCURVE",
"225 655 CURVE SMOOTH",
"316 655 OFFCURVE",
"379 565 OFFCURVE",
"417 493 CURVE",
"103 493 LINE",
"36 468 LINE",
"183 0 LINE"
);
}
);
width = 534;
}
);
leftKerningGroup = JA;
rightKerningGroup = JA;
unicode = 1E2D0;
script = wcho;
category = Letter;
subCategory = Other;
},
{
glyphname = "za-wcho";
production = u1E2D1;
lastChange = "2019-10-24 14:07:37 +0000";
layers = (
{
anchors = (
{
name = top;
position = "{216, 660}";
}
);
layerId = "86E3F33C-DCF9-4D35-94DC-2B1D8FB2A627";
paths = (
{
closed = 1;
nodes = (
"255 0 LINE",
"121 428 LINE",
"485 428 LINE",
"500 484 LINE",
"432 622 OFFCURVE",
"340 720 OFFCURVE",
"219 720 CURVE SMOOTH",
"135 720 OFFCURVE",
"86 670 OFFCURVE",
"64 605 CURVE",
"136 605 LINE",
"154 641 OFFCURVE",
"189 655 OFFCURVE",
"225 655 CURVE SMOOTH",
"316 655 OFFCURVE",
"379 565 OFFCURVE",
"417 493 CURVE",
"103 493 LINE",
"36 468 LINE",
"183 0 LINE"
);
},
{
closed = 1;
nodes = (
"344 214 OFFCURVE",
"364 232 OFFCURVE",
"364 278 CURVE SMOOTH",
"364 319 OFFCURVE",
"347 338 OFFCURVE",
"319 338 CURVE SMOOTH",
"289 338 OFFCURVE",
"272 316 OFFCURVE",
"272 278 CURVE SMOOTH",
"272 232 OFFCURVE",
"287 214 OFFCURVE",
"319 214 CURVE"
);
}
);
width = 534;
}
);
leftKerningGroup = JA;
leftMetricsKey = "ja-wcho";
rightKerningGroup = JA;
rightMetricsKey = "ja-wcho";
unicode = 1E2D1;
script = wcho;
category = Letter;
subCategory = Other;
},
{
glyphname = "wa-wcho";
production = u1E2D2;
lastChange = "2019-10-24 14:07:37 +0000";
layers = (
{
anchors = (
{
name = top;
position = "{385, 660}";
}
);
layerId = "86E3F33C-DCF9-4D35-94DC-2B1D8FB2A627";
paths = (
{
closed = 1;
nodes = (
"282 39 LINE",
"141 208 OFFCURVE",
"122 300 OFFCURVE",
"122 413 CURVE SMOOTH",
"122 538 OFFCURVE",
"181 655 OFFCURVE",
"250 655 CURVE SMOOTH",
"314 655 OFFCURVE",
"349 599 OFFCURVE",
"349 288 CURVE",
"421 288 LINE",
"421 599 OFFCURVE",
"455 655 OFFCURVE",
"519 655 CURVE SMOOTH",
"588 655 OFFCURVE",
"647 538 OFFCURVE",
"647 413 CURVE SMOOTH",
"647 300 OFFCURVE",
"628 208 OFFCURVE",
"487 39 CURVE",
"542 -10 LINE",
"700 189 OFFCURVE",
"719 283 OFFCURVE",
"719 414 CURVE SMOOTH",
"719 582 OFFCURVE",
"628 720 OFFCURVE",
"509 720 CURVE SMOOTH",
"447 720 OFFCURVE",
"398 691 OFFCURVE",
"378 592 CURVE",
"392 592 LINE",
"371 691 OFFCURVE",
"322 720 OFFCURVE",
"260 720 CURVE SMOOTH",
"141 720 OFFCURVE",
"50 582 OFFCURVE",
"50 414 CURVE SMOOTH",
"50 283 OFFCURVE",
"69 189 OFFCURVE",
"227 -10 CURVE"
);
}
);
width = 769;
}
);
leftKerningGroup = U;
rightKerningGroup = U;
unicode = 1E2D2;
script = wcho;
category = Letter;
subCategory = Other;
},
{
glyphname = "va-wcho";
production = u1E2D3;
lastChange = "2019-10-24 14:07:37 +0000";
layers = (
{
anchors = (
{
name = top;
position = "{414, 660}";
}
);
layerId = "86E3F33C-DCF9-4D35-94DC-2B1D8FB2A627";
paths = (
{
closed = 1;
nodes = (
"112 0 LINE",
"335 565 LINE SMOOTH",
"351 606 OFFCURVE",
"385 655 OFFCURVE",
"431 655 CURVE SMOOTH",
"460 655 OFFCURVE",
"479 629 OFFCURVE",
"479 600 CURVE SMOOTH",
"479 516 OFFCURVE",
"380 466 OFFCURVE",
"274 466 CURVE SMOOTH",
"151 466 OFFCURVE",
"121 531 OFFCURVE",
"121 587 CURVE SMOOTH",
"121 616 OFFCURVE",
"129 647 OFFCURVE",
"170 696 CURVE",
"108 720 LINE",
"61 668 OFFCURVE",
"49 615 OFFCURVE",
"49 579 CURVE SMOOTH",
"49 495 OFFCURVE",
"123 401 OFFCURVE",
"270 401 CURVE SMOOTH",
"414 401 OFFCURVE",
"551 492 OFFCURVE",
"551 600 CURVE SMOOTH",
"551 661 OFFCURVE",
"516 720 OFFCURVE",
"437 720 CURVE SMOOTH",
"360 720 OFFCURVE",
"307 670 OFFCURVE",
"279 600 CURVE SMOOTH",
"40 0 LINE"
);
}
);
width = 581;
}
);
unicode = 1E2D3;
script = wcho;
category = Letter;
subCategory = Other;
},
{
glyphname = "ka-wcho";
production = u1E2D4;
lastChange = "2019-10-24 14:07:37 +0000";
layers = (
{
anchors = (
{
name = top;
position = "{295, 660}";
}
);
layerId = "86E3F33C-DCF9-4D35-94DC-2B1D8FB2A627";
paths = (
{
closed = 1;
nodes = (
"142 0 LINE",
"142 497 LINE SMOOTH",
"142 600 OFFCURVE",
"194 655 OFFCURVE",
"296 655 CURVE SMOOTH",
"397 655 OFFCURVE",
"445 600 OFFCURVE",
"445 497 CURVE SMOOTH",
"445 0 LINE",
"517 0 LINE",
"517 516 LINE SMOOTH",
"517 650 OFFCURVE",
"439 720 OFFCURVE",
"296 720 CURVE SMOOTH",
"152 720 OFFCURVE",
"70 650 OFFCURVE",
"70 516 CURVE SMOOTH",
"70 0 LINE"
);
}
);
width = 587;
}
);
rightKerningGroup = O;
unicode = 1E2D4;
script = wcho;
category = Letter;
subCategory = Other;
},
{
glyphname = "o-wcho";
production = u1E2D5;
lastChange = "2019-10-24 14:07:37 +0000";
layers = (
{
anchors = (
{
name = top;
position = "{351, 660}";
}
);
layerId = "86E3F33C-DCF9-4D35-94DC-2B1D8FB2A627";
paths = (
{
closed = 1;
nodes = (
"544 0 LINE",
"544 539 LINE SMOOTH",
"544 649 OFFCURVE",
"474 720 OFFCURVE",
"351 720 CURVE SMOOTH",
"210 720 OFFCURVE",
"144 625 OFFCURVE",
"144 536 CURVE SMOOTH",
"144 520 OFFCURVE",
"145 514 OFFCURVE",
"147 503 CURVE",
"40 503 LINE",
"40 438 LINE",
"211 438 LINE",
"211 510 LINE SMOOTH",
"211 577 OFFCURVE",
"242 655 OFFCURVE",
"351 655 CURVE SMOOTH",
"455 655 OFFCURVE",
"472 588 OFFCURVE",
"472 529 CURVE SMOOTH",
"472 0 LINE"
);
}
);
width = 614;
}
);
leftKerningGroup = O;
rightKerningGroup = O;
rightMetricsKey = "ka-wcho";
unicode = 1E2D5;
script = wcho;
category = Letter;
subCategory = Other;
},
{
glyphname = "au-wcho";
production = u1E2D6;
lastChange = "2019-10-24 14:07:37 +0000";
layers = (
{
anchors = (
{
name = top;
position = "{351, 660}";
}
);
layerId = "86E3F33C-DCF9-4D35-94DC-2B1D8FB2A627";
paths = (
{
closed = 1;
nodes = (
"544 0 LINE",
"544 539 LINE SMOOTH",
"544 649 OFFCURVE",
"474 720 OFFCURVE",
"351 720 CURVE SMOOTH",
"210 720 OFFCURVE",
"144 625 OFFCURVE",
"144 536 CURVE SMOOTH",
"144 520 OFFCURVE",
"145 514 OFFCURVE",
"147 503 CURVE",
"40 503 LINE",
"40 438 LINE",
"211 438 LINE",
"211 510 LINE SMOOTH",
"211 577 OFFCURVE",
"242 655 OFFCURVE",
"351 655 CURVE SMOOTH",
"455 655 OFFCURVE",
"472 588 OFFCURVE",
"472 529 CURVE SMOOTH",
"472 0 LINE"
);
},
{
closed = 1;
nodes = (
"352 422 OFFCURVE",
"372 440 OFFCURVE",
"372 486 CURVE SMOOTH",
"372 527 OFFCURVE",
"355 546 OFFCURVE",
"327 546 CURVE SMOOTH",
"297 546 OFFCURVE",
"280 524 OFFCURVE",
"280 486 CURVE SMOOTH",
"280 440 OFFCURVE",
"295 422 OFFCURVE",
"327 422 CURVE"
);
}
);
width = 614;
}
);
leftKerningGroup = O;
leftMetricsKey = "o-wcho";
rightKerningGroup = O;
rightMetricsKey = "o-wcho";
unicode = 1E2D6;
script = wcho;
category = Letter;
subCategory = Other;
},
{
glyphname = "ra-wcho";
production = u1E2D7;
lastChange = "2019-10-24 14:07:37 +0000";
layers = (
{
anchors = (
{
name = top;
position = "{274, 660}";
}
);
layerId = "86E3F33C-DCF9-4D35-94DC-2B1D8FB2A627";
paths = (
{
closed = 1;
nodes = (
"206 0 OFFCURVE",
"269 56 OFFCURVE",
"324 56 CURVE SMOOTH",
"354 56 OFFCURVE",
"383 38 OFFCURVE",
"411 0 CURVE",
"476 0 LINE",
"476 576 LINE SMOOTH",
"476 678 OFFCURVE",
"375 720 OFFCURVE",
"279 720 CURVE SMOOTH",
"157 720 OFFCURVE",
"67 656 OFFCURVE",
"67 554 CURVE SMOOTH",
"67 453 OFFCURVE",
"150 414 OFFCURVE",
"233 414 CURVE",
"233 479 LINE",
"196 479 OFFCURVE",
"135 490 OFFCURVE",
"135 555 CURVE SMOOTH",
"135 623 OFFCURVE",
"203 655 OFFCURVE",
"278 655 CURVE SMOOTH",
"336 655 OFFCURVE",
"404 635 OFFCURVE",
"404 565 CURVE SMOOTH",
"404 90 LINE",
"382 108 OFFCURVE",
"355 121 OFFCURVE",
"323 121 CURVE SMOOTH",
"253 121 OFFCURVE",
"193 65 OFFCURVE",
"139 65 CURVE SMOOTH",
"114 65 OFFCURVE",
"92 78 OFFCURVE",
"69 107 CURVE",
"20 57 LINE",
"51 17 OFFCURVE",
"91 0 OFFCURVE",
"130 0 CURVE SMOOTH"
);
}
);
width = 546;
}
);
rightKerningGroup = O;
rightMetricsKey = "ka-wcho";
unicode = 1E2D7;
script = wcho;
category = Letter;
subCategory = Other;
},
{
glyphname = "ma-wcho";
production = u1E2D8;
lastChange = "2019-10-24 14:07:37 +0000";
layers = (
{
anchors = (
{
name = top;
position = "{376, 660}";
}
);
layerId = "86E3F33C-DCF9-4D35-94DC-2B1D8FB2A627";
paths = (
{
closed = 1;
nodes = (
"560 -10 OFFCURVE",
"614 70 OFFCURVE",
"614 142 CURVE SMOOTH",
"614 218 OFFCURVE",
"544 265 OFFCURVE",
"477 265 CURVE",
"477 200 LINE",
"508 200 OFFCURVE",
"542 181 OFFCURVE",
"542 136 CURVE SMOOTH",
"542 102 OFFCURVE",
"523 54 OFFCURVE",
"448 54 CURVE SMOOTH",
"350 54 OFFCURVE",
"304 133 OFFCURVE",
"304 231 CURVE SMOOTH",
"304 371 OFFCURVE",
"405 531 OFFCURVE",
"650 613 CURVE",
"650 669 LINE",
"375 581 OFFCURVE",
"232 429 OFFCURVE",
"232 232 CURVE SMOOTH",
"232 89 OFFCURVE",
"299 -10 OFFCURVE",
"440 -10 CURVE SMOOTH"
);
},
{
closed = 1;
nodes = (
"650 669 LINE",
"553 705 OFFCURVE",
"457 720 OFFCURVE",
"375 720 CURVE SMOOTH",
"152 720 OFFCURVE",
"50 605 OFFCURVE",
"50 490 CURVE SMOOTH",
"50 414 OFFCURVE",
"94 372 OFFCURVE",
"166 366 CURVE",
"175 423 LINE",
"143 427 OFFCURVE",
"118 444 OFFCURVE",
"118 487 CURVE SMOOTH",
"118 570 OFFCURVE",
"198 655 OFFCURVE",
"382 655 CURVE SMOOTH",
"441 655 OFFCURVE",
"525 646 OFFCURVE",
"650 615 CURVE"
);
}
);
width = 690;
}
);
unicode = 1E2D8;
script = wcho;
category = Letter;
subCategory = Other;
},
{
glyphname = "kha-wcho";
production = u1E2D9;
lastChange = "2019-10-24 14:07:37 +0000";
layers = (
{
anchors = (
{
name = top;
position = "{350, 660}";
}
);
layerId = "86E3F33C-DCF9-4D35-94DC-2B1D8FB2A627";
paths = (
{
closed = 1;
nodes = (
"586 70 LINE",
"575 64 OFFCURVE",
"556 55 OFFCURVE",
"529 55 CURVE SMOOTH",
"481 55 OFFCURVE",
"446 82 OFFCURVE",
"446 129 CURVE SMOOTH",
"446 220 OFFCURVE",
"559 287 OFFCURVE",
"688 306 CURVE",
"664 367 LINE",
"467 334 OFFCURVE",
"374 244 OFFCURVE",
"374 128 CURVE SMOOTH",
"374 39 OFFCURVE",
"440 -10 OFFCURVE",
"526 -10 CURVE SMOOTH",
"576 -10 OFFCURVE",
"627 8 OFFCURVE",
"673 41 CURVE",
"403 710 LINE",
"308 710 LINE",
"30 0 LINE",
"102 0 LINE",
"355 643 LINE"
);
}
);
width = 728;
}
);
unicode = 1E2D9;
script = wcho;
category = Letter;
subCategory = Other;
},
{
glyphname = "ha-wcho";
production = u1E2DA;
lastChange = "2019-10-24 14:07:37 +0000";
layers = (
{
anchors = (
{
name = top;
position = "{259, 660}";
}
);
layerId = "86E3F33C-DCF9-4D35-94DC-2B1D8FB2A627";
paths = (
{
closed = 1;
nodes = (
"107 171 LINE",
"102 182 OFFCURVE",
"99 196 OFFCURVE",
"99 211 CURVE SMOOTH",
"99 248 OFFCURVE",
"125 270 OFFCURVE",
"174 270 CURVE SMOOTH",
"223 270 OFFCURVE",
"314 237 OFFCURVE",
"392 0 CURVE",
"443 29 LINE",
"360 283 OFFCURVE",
"252 335 OFFCURVE",
"174 335 CURVE SMOOTH",
"99 335 OFFCURVE",
"27 288 OFFCURVE",
"27 211 CURVE SMOOTH",
"27 191 OFFCURVE",
"32 172 OFFCURVE",
"39 154 CURVE"
);
},
{
closed = 1;
nodes = (
"464 0 LINE",
"464 542 LINE SMOOTH",
"464 689 OFFCURVE",
"323 720 OFFCURVE",
"241 720 CURVE SMOOTH",
"131 720 OFFCURVE",
"32 665 OFFCURVE",
"32 571 CURVE SMOOTH",
"32 503 OFFCURVE",
"88 453 OFFCURVE",
"156 453 CURVE",
"156 518 LINE",
"124 518 OFFCURVE",
"104 542 OFFCURVE",
"104 575 CURVE SMOOTH",
"104 635 OFFCURVE",
"170 655 OFFCURVE",
"239 655 CURVE SMOOTH",
"297 655 OFFCURVE",
"392 641 OFFCURVE",
"392 537 CURVE SMOOTH",
"392 0 LINE"
);
}
);
width = 534;
}
);
rightKerningGroup = O;
rightMetricsKey = "ka-wcho";
unicode = 1E2DA;
script = wcho;
category = Letter;
subCategory = Other;
},
{
glyphname = "e-wcho";
production = u1E2DB;
lastChange = "2019-10-24 14:07:37 +0000";
layers = (
{
anchors = (
{
name = top;
position = "{285, 660}";
}
);
layerId = "86E3F33C-DCF9-4D35-94DC-2B1D8FB2A627";
paths = (
{
closed = 1;
nodes = (
"265 -10 OFFCURVE",
"320 42 OFFCURVE",
"395 114 CURVE SMOOTH",
"449 166 OFFCURVE",
"495 204 OFFCURVE",
"544 204 CURVE SMOOTH",
"580 204 OFFCURVE",
"615 182 OFFCURVE",
"615 132 CURVE SMOOTH",
"615 83 OFFCURVE",
"582 55 OFFCURVE",
"542 55 CURVE SMOOTH",
"501 55 OFFCURVE",
"473 83 OFFCURVE",
"473 143 CURVE SMOOTH",
"473 573 LINE SMOOTH",
"473 683 OFFCURVE",
"379 720 OFFCURVE",
"285 720 CURVE SMOOTH",
"157 720 OFFCURVE",
"71 655 OFFCURVE",
"71 570 CURVE SMOOTH",
"71 503 OFFCURVE",
"127 453 OFFCURVE",
"195 453 CURVE",
"195 518 LINE",
"163 518 OFFCURVE",
"143 540 OFFCURVE",
"143 571 CURVE SMOOTH",
"143 613 OFFCURVE",
"189 655 OFFCURVE",
"280 655 CURVE SMOOTH",
"336 655 OFFCURVE",
"401 638 OFFCURVE",
"401 560 CURVE SMOOTH",
"401 133 LINE SMOOTH",
"401 49 OFFCURVE",
"455 -10 OFFCURVE",
"538 -10 CURVE SMOOTH",
"622 -10 OFFCURVE",
"687 47 OFFCURVE",
"687 133 CURVE SMOOTH",
"687 222 OFFCURVE",
"625 269 OFFCURVE",
"550 269 CURVE SMOOTH",
"476 269 OFFCURVE",
"417 225 OFFCURVE",
"352 160 CURVE SMOOTH",
"284 92 OFFCURVE",
"240 55 OFFCURVE",
"188 55 CURVE SMOOTH",
"140 55 OFFCURVE",
"102 87 OFFCURVE",
"80 110 CURVE",
"30 65 LINE",
"72 6 OFFCURVE",
"130 -10 OFFCURVE",
"178 -10 CURVE SMOOTH"
);
}
);
width = 737;
}
);
unicode = 1E2DB;
script = wcho;
category = Letter;
subCategory = Other;
},
{
glyphname = "i-wcho";
production = u1E2DC;
lastChange = "2019-10-24 14:07:37 +0000";
layers = (
{
anchors = (
{
name = top;
position = "{265, 660}";
}
);
layerId = "86E3F33C-DCF9-4D35-94DC-2B1D8FB2A627";
paths = (
{
closed = 1;
nodes = (
"383 -10 OFFCURVE",
"447 55 OFFCURVE",
"481 104 CURVE",
"422 135 LINE",
"397 100 OFFCURVE",
"348 55 OFFCURVE",
"256 55 CURVE SMOOTH",
"192 55 OFFCURVE",
"149 77 OFFCURVE",
"120 102 CURVE",
"502 644 LINE",
"481 710 LINE",
"30 710 LINE",
"30 645 LINE",
"430 645 LINE",
"38 89 LINE",
"70 36 OFFCURVE",
"145 -10 OFFCURVE",
"255 -10 CURVE SMOOTH"
);
}
);
width = 532;
}
);
unicode = 1E2DC;
script = wcho;
category = Letter;
subCategory = Other;
},
{
glyphname = "nga-wcho";
production = u1E2DD;
lastChange = "2019-10-24 14:07:37 +0000";
layers = (
{
anchors = (
{
name = top;
position = "{320, 660}";
}
);
layerId = "86E3F33C-DCF9-4D35-94DC-2B1D8FB2A627";
paths = (
{
closed = 1;
nodes = (
"26 -9 OFFCURVE",
"38 -10 OFFCURVE",
"50 -10 CURVE SMOOTH",
"122 -10 OFFCURVE",
"189 36 OFFCURVE",
"216 134 CURVE SMOOTH",
"273 344 LINE SMOOTH",
"294 423 OFFCURVE",
"339 440 OFFCURVE",
"373 440 CURVE SMOOTH",
"406 440 OFFCURVE",
"429 423 OFFCURVE",
"429 393 CURVE SMOOTH",
"429 359 OFFCURVE",
"403 337 OFFCURVE",
"333 337 CURVE SMOOTH",
"204 337 OFFCURVE",
"121 408 OFFCURVE",
"121 497 CURVE SMOOTH",
"121 590 OFFCURVE",
"210 655 OFFCURVE",
"325 655 CURVE SMOOTH",
"385 655 OFFCURVE",
"428 637 OFFCURVE",
"457 622 CURVE",
"491 680 LINE",
"444 705 OFFCURVE",
"394 720 OFFCURVE",
"330 720 CURVE SMOOTH",
"171 720 OFFCURVE",
"49 628 OFFCURVE",
"49 497 CURVE SMOOTH",
"49 370 OFFCURVE",
"167 272 OFFCURVE",
"323 272 CURVE SMOOTH",
"439 272 OFFCURVE",
"501 332 OFFCURVE",
"501 398 CURVE SMOOTH",
"501 460 OFFCURVE",
"449 506 OFFCURVE",
"378 506 CURVE SMOOTH",
"318 506 OFFCURVE",
"238 473 OFFCURVE",
"209 365 CURVE SMOOTH",
"158 172 LINE SMOOTH",
"132 74 OFFCURVE",
"95 55 OFFCURVE",
"50 55 CURVE SMOOTH",
"42 55 OFFCURVE",
"34 56 OFFCURVE",
"27 58 CURVE",
"15 -7 LINE"
);
}
);
width = 541;
}
);
unicode = 1E2DD;
script = wcho;
category = Letter;
subCategory = Other;
},
{
glyphname = "u-wcho";
production = u1E2DE;
lastChange = "2019-10-24 14:07:37 +0000";
layers = (
{
anchors = (
{
name = top;
position = "{463, 660}";
}
);
layerId = "86E3F33C-DCF9-4D35-94DC-2B1D8FB2A627";
paths = (
{
closed = 1;
nodes = (
"156 -10 OFFCURVE",
"398 -10 CURVE SMOOTH",
"637 -10 OFFCURVE",
"700 197 OFFCURVE",
"700 343 CURVE SMOOTH",
"700 525 OFFCURVE",
"606 670 OFFCURVE",
"463 670 CURVE SMOOTH",
"359 670 OFFCURVE",
"266 591 OFFCURVE",
"266 465 CURVE SMOOTH",
"266 392 OFFCURVE",
"299 329 OFFCURVE",
"321 292 CURVE",
"383 320 LINE",
"362 350 OFFCURVE",
"338 399 OFFCURVE",
"338 460 CURVE SMOOTH",
"338 553 OFFCURVE",
"397 605 OFFCURVE",
"467 605 CURVE SMOOTH",
"569 605 OFFCURVE",
"628 497 OFFCURVE",
"628 344 CURVE SMOOTH",
"628 201 OFFCURVE",
"572 55 OFFCURVE",
"398 55 CURVE SMOOTH",
"198 55 OFFCURVE",
"122 242 OFFCURVE",
"122 418 CURVE SMOOTH",
"122 543 OFFCURVE",
"161 641 OFFCURVE",
"179 681 CURVE",
"116 720 LINE",
"85 654 OFFCURVE",
"50 551 OFFCURVE",
"50 422 CURVE SMOOTH",
"50 198 OFFCURVE"
);
}
);
width = 750;
}
);
leftKerningGroup = U;
leftMetricsKey = "pha-wcho";
rightKerningGroup = U;
rightMetricsKey = "pha-wcho";
unicode = 1E2DE;
script = wcho;
category = Letter;
subCategory = Other;
},
{
glyphname = "llha-wcho";
production = u1E2DF;
lastChange = "2019-10-24 14:07:37 +0000";
layers = (
{
anchors = (
{
name = top;
position = "{264, 660}";
}
);
layerId = "86E3F33C-DCF9-4D35-94DC-2B1D8FB2A627";
paths = (
{
closed = 1;
nodes = (
"142 0 LINE",
"142 517 LINE SMOOTH",
"142 610 OFFCURVE",
"194 655 OFFCURVE",
"266 655 CURVE SMOOTH",
"337 655 OFFCURVE",
"385 610 OFFCURVE",
"385 517 CURVE SMOOTH",
"385 174 LINE SMOOTH",
"385 50 OFFCURVE",
"467 -10 OFFCURVE",
"581 -10 CURVE SMOOTH",
"694 -10 OFFCURVE",
"772 50 OFFCURVE",
"772 174 CURVE SMOOTH",
"772 710 LINE",
"700 710 LINE",
"700 193 LINE SMOOTH",
"700 100 OFFCURVE",
"652 55 OFFCURVE",
"581 55 CURVE SMOOTH",
"509 55 OFFCURVE",
"457 100 OFFCURVE",
"457 193 CURVE SMOOTH",
"457 536 LINE SMOOTH",
"457 660 OFFCURVE",
"379 720 OFFCURVE",
"266 720 CURVE SMOOTH",
"152 720 OFFCURVE",
"70 660 OFFCURVE",
"70 536 CURVE SMOOTH",
"70 0 LINE"
);
}
);
width = 842;
}
);
leftMetricsKey = "ka-wcho";
rightKerningGroup = O;
rightMetricsKey = "ka-wcho";
unicode = 1E2DF;
script = wcho;
category = Letter;
subCategory = Other;
},
{
glyphname = "tsa-wcho";
production = u1E2E0;
lastChange = "2019-10-24 14:07:37 +0000";
layers = (
{
anchors = (
{
name = top;
position = "{264, 660}";
}
);
layerId = "86E3F33C-DCF9-4D35-94DC-2B1D8FB2A627";
paths = (
{
closed = 1;
nodes = (
"227 655 LINE SMOOTH",
"353 655 OFFCURVE",
"435 593 OFFCURVE",
"435 505 CURVE SMOOTH",
"435 429 OFFCURVE",
"374 364 OFFCURVE",
"301 338 CURVE SMOOTH",
"228 312 LINE SMOOTH",
"132 278 OFFCURVE",
"30 191 OFFCURVE",
"30 48 CURVE SMOOTH",
"30 34 OFFCURVE",
"31 18 OFFCURVE",
"36 0 CURVE",
"108 0 LINE",
"104 17 OFFCURVE",
"102 33 OFFCURVE",
"102 49 CURVE SMOOTH",
"102 149 OFFCURVE",
"164 220 OFFCURVE",
"251 252 CURVE SMOOTH",
"300 270 LINE SMOOTH",
"424 315 OFFCURVE",
"507 400 OFFCURVE",
"507 512 CURVE SMOOTH",
"507 651 OFFCURVE",
"383 720 OFFCURVE",
"193 720 CURVE SMOOTH",
"76 720 LINE",
"364 0 LINE",
"436 0 LINE",
"174 655 LINE"
);
}
);
width = 537;
}
);
unicode = 1E2E0;
script = wcho;
category = Letter;
subCategory = Other;
},
{
glyphname = "tra-wcho";
production = u1E2E1;
lastChange = "2019-10-24 14:07:37 +0000";
layers = (
{
anchors = (
{
name = top;
position = "{274, 660}";
}
);
layerId = "86E3F33C-DCF9-4D35-94DC-2B1D8FB2A627";
paths = (
{
closed = 1;
nodes = (
"242 220 OFFCURVE",
"262 238 OFFCURVE",
"262 284 CURVE SMOOTH",
"262 325 OFFCURVE",
"245 344 OFFCURVE",
"217 344 CURVE SMOOTH",
"187 344 OFFCURVE",
"170 322 OFFCURVE",
"170 284 CURVE SMOOTH",
"170 238 OFFCURVE",
"185 220 OFFCURVE",
"217 220 CURVE"
);
},
{
closed = 1;
nodes = (
"206 0 OFFCURVE",
"269 56 OFFCURVE",
"324 56 CURVE SMOOTH",
"354 56 OFFCURVE",
"383 38 OFFCURVE",
"411 0 CURVE",
"476 0 LINE",
"476 576 LINE SMOOTH",
"476 678 OFFCURVE",
"375 720 OFFCURVE",
"279 720 CURVE SMOOTH",
"157 720 OFFCURVE",
"67 656 OFFCURVE",
"67 554 CURVE SMOOTH",
"67 453 OFFCURVE",
"150 414 OFFCURVE",
"233 414 CURVE",
"233 479 LINE",
"196 479 OFFCURVE",
"135 490 OFFCURVE",
"135 555 CURVE SMOOTH",
"135 623 OFFCURVE",
"203 655 OFFCURVE",
"278 655 CURVE SMOOTH",
"336 655 OFFCURVE",
"404 635 OFFCURVE",
"404 565 CURVE SMOOTH",
"404 90 LINE",
"382 108 OFFCURVE",
"355 121 OFFCURVE",
"323 121 CURVE SMOOTH",
"253 121 OFFCURVE",
"193 65 OFFCURVE",
"139 65 CURVE SMOOTH",
"114 65 OFFCURVE",
"92 78 OFFCURVE",
"69 107 CURVE",
"20 57 LINE",
"51 17 OFFCURVE",
"91 0 OFFCURVE",
"130 0 CURVE SMOOTH"
);
}
);
width = 546;
}
);
leftMetricsKey = "ra-wcho";
rightKerningGroup = O;
rightMetricsKey = "ra-wcho";
unicode = 1E2E1;
script = wcho;
category = Letter;
subCategory = Other;
},
{
glyphname = "ong-wcho";
production = u1E2E2;
lastChange = "2019-10-24 14:07:37 +0000";
layers = (
{
anchors = (
{
name = top;
position = "{291, 660}";
}
);
layerId = "86E3F33C-DCF9-4D35-94DC-2B1D8FB2A627";
paths = (
{
closed = 1;
nodes = (
"396 -10 OFFCURVE",
"535 97 OFFCURVE",
"535 267 CURVE SMOOTH",
"535 428 OFFCURVE",
"429 490 OFFCURVE",
"288 490 CURVE SMOOTH",
"155 490 OFFCURVE",
"46 428 OFFCURVE",
"46 333 CURVE SMOOTH",
"46 263 OFFCURVE",
"93 221 OFFCURVE",
"168 221 CURVE SMOOTH",
"251 221 OFFCURVE",
"312 273 OFFCURVE",
"364 368 CURVE SMOOTH",
"524 659 LINE",
"491 720 LINE",
"40 607 LINE",
"58 545 LINE",
"472 649 LINE",
"462 677 LINE",
"317 414 LINE SMOOTH",
"282 351 OFFCURVE",
"234 286 OFFCURVE",
"176 286 CURVE SMOOTH",
"143 286 OFFCURVE",
"118 307 OFFCURVE",
"118 334 CURVE SMOOTH",
"118 379 OFFCURVE",
"188 425 OFFCURVE",
"289 425 CURVE SMOOTH",
"391 425 OFFCURVE",
"463 378 OFFCURVE",
"463 261 CURVE SMOOTH",
"463 128 OFFCURVE",
"356 55 OFFCURVE",
"228 55 CURVE SMOOTH",
"165 55 OFFCURVE",
"128 72 OFFCURVE",
"107 85 CURVE",
"69 29 LINE",
"105 9 OFFCURVE",
"155 -10 OFFCURVE",
"227 -10 CURVE SMOOTH"
);
}
);
width = 585;
}
);
unicode = 1E2E2;
script = wcho;
category = Letter;
subCategory = Other;
},
{
glyphname = "aang-wcho";
production = u1E2E3;
lastChange = "2019-10-24 14:07:37 +0000";
layers = (
{
anchors = (
{
name = top;
position = "{435, 660}";
}
);
layerId = "86E3F33C-DCF9-4D35-94DC-2B1D8FB2A627";
paths = (
{
closed = 1;
nodes = (
"120 0 OFFCURVE",
"179 24 OFFCURVE",
"268 180 CURVE SMOOTH",
"323 277 OFFCURVE",
"387 314 OFFCURVE",
"462 314 CURVE SMOOTH",
"549 314 OFFCURVE",
"600 263 OFFCURVE",
"600 184 CURVE SMOOTH",
"600 106 OFFCURVE",
"546 55 OFFCURVE",
"455 55 CURVE SMOOTH",
"319 55 OFFCURVE",
"228 179 OFFCURVE",
"228 348 CURVE SMOOTH",
"228 559 OFFCURVE",
"345 655 OFFCURVE",
"491 655 CURVE SMOOTH",
"524 655 OFFCURVE",
"558 650 OFFCURVE",
"593 639 CURVE",
"593 706 LINE",
"553 716 OFFCURVE",
"515 720 OFFCURVE",
"479 720 CURVE SMOOTH",
"298 720 OFFCURVE",
"156 594 OFFCURVE",
"156 348 CURVE SMOOTH",
"156 144 OFFCURVE",
"283 -10 OFFCURVE",
"454 -10 CURVE SMOOTH",
"589 -10 OFFCURVE",
"672 74 OFFCURVE",
"672 187 CURVE SMOOTH",
"672 301 OFFCURVE",
"588 378 OFFCURVE",
"462 378 CURVE SMOOTH",
"362 378 OFFCURVE",
"280 324 OFFCURVE",
"214 211 CURVE SMOOTH",
"137 78 OFFCURVE",
"99 65 OFFCURVE",
"15 65 CURVE",
"15 0 LINE"
);
}
);
width = 722;
}
);
leftKerningGroup = AANG;
rightKerningGroup = AANG;
unicode = 1E2E3;
script = wcho;
category = Letter;
subCategory = Other;
},
{
glyphname = "ang-wcho";
production = u1E2E4;
lastChange = "2019-10-24 14:07:37 +0000";
layers = (
{
anchors = (
{
name = top;
position = "{424, 660}";
}
);
layerId = "86E3F33C-DCF9-4D35-94DC-2B1D8FB2A627";
paths = (
{
closed = 1;
nodes = (
"120 0 OFFCURVE",
"179 24 OFFCURVE",
"268 180 CURVE SMOOTH",
"323 277 OFFCURVE",
"387 314 OFFCURVE",
"462 314 CURVE SMOOTH",
"549 314 OFFCURVE",
"600 263 OFFCURVE",
"600 184 CURVE SMOOTH",
"600 106 OFFCURVE",
"546 55 OFFCURVE",
"455 55 CURVE SMOOTH",
"319 55 OFFCURVE",
"228 179 OFFCURVE",
"228 348 CURVE SMOOTH",
"228 559 OFFCURVE",
"345 655 OFFCURVE",
"491 655 CURVE SMOOTH",
"524 655 OFFCURVE",
"558 650 OFFCURVE",
"593 639 CURVE",
"593 706 LINE",
"553 716 OFFCURVE",
"515 720 OFFCURVE",
"479 720 CURVE SMOOTH",
"298 720 OFFCURVE",
"156 594 OFFCURVE",
"156 348 CURVE SMOOTH",
"156 144 OFFCURVE",
"283 -10 OFFCURVE",
"454 -10 CURVE SMOOTH",
"589 -10 OFFCURVE",
"672 74 OFFCURVE",
"672 187 CURVE SMOOTH",
"672 301 OFFCURVE",
"588 378 OFFCURVE",
"462 378 CURVE SMOOTH",
"362 378 OFFCURVE",
"280 324 OFFCURVE",
"214 211 CURVE SMOOTH",
"137 78 OFFCURVE",
"99 65 OFFCURVE",
"15 65 CURVE",
"15 0 LINE"
);
},
{
closed = 1;
nodes = (
"457 442 OFFCURVE",
"477 460 OFFCURVE",
"477 506 CURVE SMOOTH",
"477 547 OFFCURVE",
"460 566 OFFCURVE",
"432 566 CURVE SMOOTH",
"402 566 OFFCURVE",
"385 544 OFFCURVE",
"385 506 CURVE SMOOTH",
"385 460 OFFCURVE",
"400 442 OFFCURVE",
"432 442 CURVE"
);
}
);
width = 722;
}
);
leftKerningGroup = AANG;
leftMetricsKey = "aang-wcho";
rightKerningGroup = AANG;
rightMetricsKey = "aang-wcho";
unicode = 1E2E4;
script = wcho;
category = Letter;
subCategory = Other;
},
{
glyphname = "ing-wcho";
production = u1E2E5;
lastChange = "2019-10-24 14:07:37 +0000";
layers = (
{
anchors = (
{
name = top;
position = "{282, 660}";
}
);
layerId = "86E3F33C-DCF9-4D35-94DC-2B1D8FB2A627";
paths = (
{
closed = 1;
nodes = (
"428 -10 OFFCURVE",
"552 140 OFFCURVE",
"552 388 CURVE SMOOTH",
"552 577 OFFCURVE",
"473 720 OFFCURVE",
"297 720 CURVE SMOOTH",
"155 720 OFFCURVE",
"48 636 OFFCURVE",
"48 503 CURVE SMOOTH",
"48 389 OFFCURVE",
"129 303 OFFCURVE",
"253 303 CURVE SMOOTH",
"288 303 OFFCURVE",
"321 310 OFFCURVE",
"348 322 CURVE",
"325 383 LINE",
"305 374 OFFCURVE",
"281 368 OFFCURVE",
"253 368 CURVE SMOOTH",
"167 368 OFFCURVE",
"120 425 OFFCURVE",
"120 502 CURVE SMOOTH",
"120 597 OFFCURVE",
"193 655 OFFCURVE",
"296 655 CURVE SMOOTH",
"429 655 OFFCURVE",
"480 542 OFFCURVE",
"480 388 CURVE SMOOTH",
"480 175 OFFCURVE",
"387 55 OFFCURVE",
"249 55 CURVE SMOOTH",
"197 55 OFFCURVE",
"121 72 OFFCURVE",
"59 126 CURVE",
"21 74 LINE",
"101 12 OFFCURVE",
"177 -10 OFFCURVE",
"246 -10 CURVE SMOOTH"
);
}
);
width = 602;
}
);
rightKerningGroup = U;
unicode = 1E2E5;
script = wcho;
category = Letter;
subCategory = Other;
},
{
glyphname = "on-wcho";
production = u1E2E6;
lastChange = "2019-10-24 14:07:37 +0000";
layers = (
{
anchors = (
{
name = top;
position = "{195, 660}";
}
);
layerId = "86E3F33C-DCF9-4D35-94DC-2B1D8FB2A627";
paths = (
{
closed = 1;
nodes = (
"249 0 LINE",
"127 311 LINE",
"453 168 LINE",
"521 0 LINE",
"593 0 LINE",
"354 596 LINE SMOOTH",
"321 678 OFFCURVE",
"272 720 OFFCURVE",
"197 720 CURVE SMOOTH",
"111 720 OFFCURVE",
"60 665 OFFCURVE",
"60 596 CURVE SMOOTH",
"60 514 OFFCURVE",
"135 458 OFFCURVE",
"230 458 CURVE SMOOTH",
"372 458 OFFCURVE",
"500 585 OFFCURVE",
"510 710 CURVE",
"438 710 LINE",
"428 609 OFFCURVE",
"333 523 OFFCURVE",
"235 523 CURVE SMOOTH",
"184 523 OFFCURVE",
"132 547 OFFCURVE",
"132 596 CURVE SMOOTH",
"132 631 OFFCURVE",
"157 655 OFFCURVE",
"196 655 CURVE SMOOTH",
"249 655 OFFCURVE",
"277 609 OFFCURVE",
"297 560 CURVE SMOOTH",
"417 260 LINE",
"89 404 LINE",
"40 348 LINE",
"177 0 LINE"
);
}
);
width = 633;
}
);
unicode = 1E2E6;
script = wcho;
category = Letter;
subCategory = Other;
},
{
glyphname = "en-wcho";
production = u1E2E7;
lastChange = "2019-10-24 14:07:37 +0000";
layers = (
{
anchors = (
{
name = top;
position = "{219, 660}";
}
);
layerId = "86E3F33C-DCF9-4D35-94DC-2B1D8FB2A627";
paths = (
{
closed = 1;
nodes = (
"331 -10 OFFCURVE",
"407 33 OFFCURVE",
"407 124 CURVE SMOOTH",
"407 558 LINE SMOOTH",
"407 665 OFFCURVE",
"317 720 OFFCURVE",
"217 720 CURVE SMOOTH",
"105 720 OFFCURVE",
"25 652 OFFCURVE",
"25 569 CURVE SMOOTH",
"25 500 OFFCURVE",
"81 443 OFFCURVE",
"149 443 CURVE",
"149 508 LINE",
"117 508 OFFCURVE",
"97 535 OFFCURVE",
"97 572 CURVE SMOOTH",
"97 623 OFFCURVE",
"140 655 OFFCURVE",
"216 655 CURVE SMOOTH",
"287 655 OFFCURVE",
"335 626 OFFCURVE",
"335 545 CURVE SMOOTH",
"335 127 LINE SMOOTH",
"335 72 OFFCURVE",
"293 55 OFFCURVE",
"256 55 CURVE SMOOTH",
"206 55 OFFCURVE",
"171 87 OFFCURVE",
"171 126 CURVE SMOOTH",
"171 163 OFFCURVE",
"203 187 OFFCURVE",
"270 187 CURVE SMOOTH",
"524 187 LINE",
"524 252 LINE",
"258 252 LINE SMOOTH",
"154 252 OFFCURVE",
"99 194 OFFCURVE",
"99 124 CURVE SMOOTH",
"99 46 OFFCURVE",
"168 -10 OFFCURVE",
"254 -10 CURVE SMOOTH"
);
}
);
width = 544;
}
);
unicode = 1E2E7;
script = wcho;
category = Letter;
subCategory = Other;
},
{
glyphname = "aan-wcho";
production = u1E2E8;
lastChange = "2019-10-24 14:07:37 +0000";
layers = (
{
anchors = (
{
name = top;
position = "{496, 660}";
}
);
layerId = "86E3F33C-DCF9-4D35-94DC-2B1D8FB2A627";
paths = (
{
closed = 1;
nodes = (
"238 -10 OFFCURVE",
"296 46 OFFCURVE",
"336 147 CURVE SMOOTH",
"560 710 LINE",
"488 710 LINE",
"273 169 LINE SMOOTH",
"245 98 OFFCURVE",
"213 55 OFFCURVE",
"167 55 CURVE SMOOTH",
"135 55 OFFCURVE",
"112 76 OFFCURVE",
"112 117 CURVE SMOOTH",
"112 195 OFFCURVE",
"204 243 OFFCURVE",
"339 254 CURVE SMOOTH",
"735 287 LINE",
"760 374 LINE",
"138 720 LINE",
"106 664 LINE",
"674 348 LINE",
"345 320 LINE SMOOTH",
"146 303 OFFCURVE",
"40 213 OFFCURVE",
"40 114 CURVE SMOOTH",
"40 31 OFFCURVE",
"104 -10 OFFCURVE",
"161 -10 CURVE SMOOTH"
);
}
);
width = 780;
}
);
unicode = 1E2E8;
script = wcho;
category = Letter;
subCategory = Other;
},
{
glyphname = "nya-wcho";
production = u1E2E9;
lastChange = "2019-10-24 14:07:37 +0000";
layers = (
{
anchors = (
{
name = top;
position = "{375, 660}";
}
);
layerId = "86E3F33C-DCF9-4D35-94DC-2B1D8FB2A627";
paths = (
{
closed = 1;
nodes = (
"537 -10 OFFCURVE",
"608 59 OFFCURVE",
"608 132 CURVE SMOOTH",
"608 193 OFFCURVE",
"558 257 OFFCURVE",
"452 257 CURVE SMOOTH",
"444 257 LINE",
"444 192 LINE",
"449 192 LINE SMOOTH",
"522 192 OFFCURVE",
"536 159 OFFCURVE",
"536 134 CURVE SMOOTH",
"536 94 OFFCURVE",
"498 55 OFFCURVE",
"421 55 CURVE SMOOTH",
"351 55 OFFCURVE",
"309 89 OFFCURVE",
"309 165 CURVE SMOOTH",
"309 566 LINE SMOOTH",
"309 626 OFFCURVE",
"338 655 OFFCURVE",
"387 655 CURVE SMOOTH",
"430 655 OFFCURVE",
"463 632 OFFCURVE",
"463 592 CURVE SMOOTH",
"463 531 OFFCURVE",
"388 496 OFFCURVE",
"286 496 CURVE SMOOTH",
"193 496 OFFCURVE",
"110 524 OFFCURVE",
"110 591 CURVE SMOOTH",
"110 626 OFFCURVE",
"131 651 OFFCURVE",
"151 670 CURVE",
"110 720 LINE",
"64 688 OFFCURVE",
"38 639 OFFCURVE",
"38 588 CURVE SMOOTH",
"38 483 OFFCURVE",
"150 431 OFFCURVE",
"281 431 CURVE SMOOTH",
"424 431 OFFCURVE",
"535 493 OFFCURVE",
"535 594 CURVE SMOOTH",
"535 670 OFFCURVE",
"467 720 OFFCURVE",
"386 720 CURVE SMOOTH",
"300 720 OFFCURVE",
"239 661 OFFCURVE",
"239 566 CURVE SMOOTH",
"239 165 LINE SMOOTH",
"239 43 OFFCURVE",
"319 -10 OFFCURVE",
"421 -10 CURVE SMOOTH"
);
}
);
width = 643;
}
);
unicode = 1E2E9;
script = wcho;
category = Letter;
subCategory = Other;
},
{
glyphname = "uen-wcho";
production = u1E2EA;
lastChange = "2019-10-24 14:07:37 +0000";
layers = (
{
anchors = (
{
name = top;
position = "{463, 660}";
}
);
layerId = "86E3F33C-DCF9-4D35-94DC-2B1D8FB2A627";
paths = (
{
closed = 1;
nodes = (
"156 -10 OFFCURVE",
"398 -10 CURVE SMOOTH",
"637 -10 OFFCURVE",
"700 197 OFFCURVE",
"700 343 CURVE SMOOTH",
"700 525 OFFCURVE",
"606 670 OFFCURVE",
"463 670 CURVE SMOOTH",
"359 670 OFFCURVE",
"266 591 OFFCURVE",
"266 465 CURVE SMOOTH",
"266 392 OFFCURVE",
"299 329 OFFCURVE",
"321 292 CURVE",
"383 320 LINE",
"362 350 OFFCURVE",
"338 399 OFFCURVE",
"338 460 CURVE SMOOTH",
"338 553 OFFCURVE",
"397 605 OFFCURVE",
"467 605 CURVE SMOOTH",
"569 605 OFFCURVE",
"628 497 OFFCURVE",
"628 344 CURVE SMOOTH",
"628 201 OFFCURVE",
"572 55 OFFCURVE",
"398 55 CURVE SMOOTH",
"198 55 OFFCURVE",
"122 242 OFFCURVE",
"122 418 CURVE SMOOTH",
"122 543 OFFCURVE",
"161 641 OFFCURVE",
"179 681 CURVE",
"116 720 LINE",
"85 654 OFFCURVE",
"50 551 OFFCURVE",
"50 422 CURVE SMOOTH",
"50 198 OFFCURVE"
);
},
{
closed = 1;
nodes = (
"498 291 OFFCURVE",
"518 309 OFFCURVE",
"518 355 CURVE SMOOTH",
"518 396 OFFCURVE",
"501 415 OFFCURVE",
"473 415 CURVE SMOOTH",
"443 415 OFFCURVE",
"426 393 OFFCURVE",
"426 355 CURVE SMOOTH",
"426 309 OFFCURVE",
"441 291 OFFCURVE",
"473 291 CURVE"
);
}
);
width = 750;
}
);
leftKerningGroup = U;
leftMetricsKey = "u-wcho";
rightKerningGroup = U;
rightMetricsKey = "u-wcho";
unicode = 1E2EA;
script = wcho;
category = Letter;
subCategory = Other;
},
{
glyphname = "yih-wcho";
production = u1E2EB;
lastChange = "2019-10-24 14:07:37 +0000";
layers = (
{
anchors = (
{
name = top;
position = "{494, 660}";
}
);
layerId = "86E3F33C-DCF9-4D35-94DC-2B1D8FB2A627";
paths = (
{
closed = 1;
nodes = (
"218 -10 OFFCURVE",
"271 32 OFFCURVE",
"304 114 CURVE SMOOTH",
"543 710 LINE",
"471 710 LINE",
"245 144 LINE SMOOTH",
"226 97 OFFCURVE",
"191 55 OFFCURVE",
"153 55 CURVE SMOOTH",
"124 55 OFFCURVE",
"102 79 OFFCURVE",
"102 114 CURVE SMOOTH",
"102 172 OFFCURVE",
"171 212 OFFCURVE",
"251 212 CURVE SMOOTH",
"361 212 OFFCURVE",
"448 149 OFFCURVE",
"448 19 CURVE SMOOTH",
"448 0 LINE",
"520 0 LINE",
"520 9 LINE SMOOTH",
"520 198 OFFCURVE",
"400 277 OFFCURVE",
"261 277 CURVE SMOOTH",
"125 277 OFFCURVE",
"30 200 OFFCURVE",
"30 106 CURVE SMOOTH",
"30 39 OFFCURVE",
"77 -10 OFFCURVE",
"150 -10 CURVE SMOOTH"
);
}
);
width = 573;
}
);
unicode = 1E2EB;
script = wcho;
category = Letter;
subCategory = Other;
},
{
glyphname = "tup-wcho";
production = u1E2EC;
lastChange = "2019-10-24 14:07:37 +0000";
layers = (
{
anchors = (
{
name = _top;
position = "{-305, 658}";
}
);
layerId = "86E3F33C-DCF9-4D35-94DC-2B1D8FB2A627";
paths = (
{
closed = 1;
nodes = (
"-277 772 OFFCURVE",
"-260 794 OFFCURVE",
"-260 834 CURVE SMOOTH",
"-260 874 OFFCURVE",
"-277 896 OFFCURVE",
"-305 896 CURVE SMOOTH",
"-333 896 OFFCURVE",
"-352 874 OFFCURVE",
"-352 834 CURVE SMOOTH",
"-352 794 OFFCURVE",
"-333 772 OFFCURVE",
"-305 772 CURVE SMOOTH"
);
}
);
width = 0;
}
);
unicode = 1E2EC;
script = wcho;
category = Mark;
subCategory = Nonspacing;
},
{
glyphname = "tupni-wcho";
production = u1E2ED;
lastChange = "2019-10-24 14:07:37 +0000";
layers = (
{
anchors = (
{
name = _top;
position = "{-305, 658}";
}
);
layerId = "86E3F33C-DCF9-4D35-94DC-2B1D8FB2A627";
paths = (
{
closed = 1;
nodes = (
"-367 772 OFFCURVE",
"-350 794 OFFCURVE",
"-350 834 CURVE SMOOTH",
"-350 874 OFFCURVE",
"-367 896 OFFCURVE",
"-395 896 CURVE SMOOTH",
"-423 896 OFFCURVE",
"-442 874 OFFCURVE",
"-442 834 CURVE SMOOTH",
"-442 794 OFFCURVE",
"-423 772 OFFCURVE",
"-395 772 CURVE SMOOTH"
);
},
{
closed = 1;
nodes = (
"-187 772 OFFCURVE",
"-170 794 OFFCURVE",
"-170 834 CURVE SMOOTH",
"-170 874 OFFCURVE",
"-187 896 OFFCURVE",
"-215 896 CURVE SMOOTH",
"-243 896 OFFCURVE",
"-262 874 OFFCURVE",
"-262 834 CURVE SMOOTH",
"-262 794 OFFCURVE",
"-243 772 OFFCURVE",
"-215 772 CURVE SMOOTH"
);
}
);
width = 0;
}
);
unicode = 1E2ED;
script = wcho;
category = Mark;
subCategory = Nonspacing;
},
{
glyphname = "koi-wcho";
production = u1E2EE;
lastChange = "2019-10-24 14:07:37 +0000";
layers = (
{
anchors = (
{
name = _top;
position = "{-322, 647}";
}
);
layerId = "86E3F33C-DCF9-4D35-94DC-2B1D8FB2A627";
paths = (
{
closed = 1;
nodes = (
"-326 751 LINE",
"-324 857 OFFCURVE",
"-292 928 OFFCURVE",
"-235 989 CURVE",
"-235 1038 OFFCURVE",
"-262 1066 OFFCURVE",
"-291 1078 CURVE",
"-319 1048 OFFCURVE",
"-364 985 OFFCURVE",
"-364 889 CURVE SMOOTH",
"-364 856 OFFCURVE",
"-359 809 OFFCURVE",
"-342 751 CURVE"
);
}
);
width = 0;
}
);
unicode = 1E2EE;
script = wcho;
category = Mark;
subCategory = Nonspacing;
},
{
glyphname = "koini-wcho";
production = u1E2EF;
lastChange = "2019-10-24 14:07:37 +0000";
layers = (
{
anchors = (
{
name = _top;
position = "{-312, 647}";
}
);
layerId = "86E3F33C-DCF9-4D35-94DC-2B1D8FB2A627";
paths = (
{
closed = 1;
nodes = (
"-354 756 LINE",
"-370 804 OFFCURVE",
"-376 841 OFFCURVE",
"-376 886 CURVE SMOOTH",
"-376 926 OFFCURVE",
"-365 969 OFFCURVE",
"-348 1008 CURVE",
"-357 1047 OFFCURVE",
"-385 1071 OFFCURVE",
"-431 1074 CURVE",
"-447 1038 OFFCURVE",
"-453 1008 OFFCURVE",
"-453 976 CURVE SMOOTH",
"-453 897 OFFCURVE",
"-418 820 OFFCURVE",
"-367 750 CURVE"
);
},
{
closed = 1;
nodes = (
"-263 747 LINE",
"-242 849 OFFCURVE",
"-198 915 OFFCURVE",
"-132 965 CURVE",
"-124 1000 OFFCURVE",
"-137 1039 OFFCURVE",
"-172 1062 CURVE",
"-204 1040 OFFCURVE",
"-224 1016 OFFCURVE",
"-240 988 CURVE SMOOTH",
"-280 919 OFFCURVE",
"-289 835 OFFCURVE",
"-279 748 CURVE"
);
}
);
width = 0;
}
);
unicode = 1E2EF;
script = wcho;
category = Mark;
subCategory = Nonspacing;
},
{
glyphname = "zero-wcho";
production = u1E2F0;
lastChange = "2019-10-24 14:07:37 +0000";
layers = (
{
layerId = "86E3F33C-DCF9-4D35-94DC-2B1D8FB2A627";
paths = (
{
closed = 1;
nodes = (
"510 -10 OFFCURVE",
"623 126 OFFCURVE",
"623 352 CURVE SMOOTH",
"623 594 OFFCURVE",
"518 720 OFFCURVE",
"335 720 CURVE SMOOTH",
"154 720 OFFCURVE",
"50 594 OFFCURVE",
"50 352 CURVE SMOOTH",
"50 126 OFFCURVE",
"162 -10 OFFCURVE",
"335 -10 CURVE SMOOTH"
);
},
{
closed = 1;
nodes = (
"203 55 OFFCURVE",
"122 159 OFFCURVE",
"122 352 CURVE SMOOTH",
"122 561 OFFCURVE",
"196 655 OFFCURVE",
"335 655 CURVE SMOOTH",
"476 655 OFFCURVE",
"551 561 OFFCURVE",
"551 352 CURVE SMOOTH",
"551 159 OFFCURVE",
"469 55 OFFCURVE",
"335 55 CURVE SMOOTH"
);
}
);
width = 673;
}
);
unicode = 1E2F0;
script = wcho;
category = Number;
subCategory = "Decimal Digit";
},
{
glyphname = "one-wcho";
production = u1E2F1;
lastChange = "2019-10-24 14:07:37 +0000";
layers = (
{
layerId = "86E3F33C-DCF9-4D35-94DC-2B1D8FB2A627";
paths = (
{
closed = 1;
nodes = (
"125 555 LINE",
"114 570 OFFCURVE",
"106 584 OFFCURVE",
"106 602 CURVE SMOOTH",
"106 643 OFFCURVE",
"146 655 OFFCURVE",
"185 655 CURVE SMOOTH",
"243 655 OFFCURVE",
"270 628 OFFCURVE",
"270 585 CURVE SMOOTH",
"270 0 LINE",
"342 0 LINE",
"342 585 LINE SMOOTH",
"342 666 OFFCURVE",
"289 720 OFFCURVE",
"189 720 CURVE SMOOTH",
"107 720 OFFCURVE",
"40 683 OFFCURVE",
"40 607 CURVE SMOOTH",
"40 581 OFFCURVE",
"48 555 OFFCURVE",
"68 529 CURVE"
);
}
);
width = 430;
}
);
unicode = 1E2F1;
script = wcho;
category = Number;
subCategory = "Decimal Digit";
},
{
glyphname = "two-wcho";
production = u1E2F2;
lastChange = "2019-10-24 14:07:37 +0000";
layers = (
{
layerId = "86E3F33C-DCF9-4D35-94DC-2B1D8FB2A627";
paths = (
{
closed = 1;
nodes = (
"101 29 OFFCURVE",
"188 -10 OFFCURVE",
"277 -10 CURVE SMOOTH",
"439 -10 OFFCURVE",
"570 129 OFFCURVE",
"570 333 CURVE SMOOTH",
"570 534 OFFCURVE",
"443 720 OFFCURVE",
"269 720 CURVE SMOOTH",
"158 720 OFFCURVE",
"63 644 OFFCURVE",
"63 520 CURVE SMOOTH",
"63 402 OFFCURVE",
"149 314 OFFCURVE",
"271 314 CURVE SMOOTH",
"441 314 OFFCURVE",
"569 483 OFFCURVE",
"569 713 CURVE",
"497 713 LINE",
"497 518 OFFCURVE",
"399 379 OFFCURVE",
"271 379 CURVE SMOOTH",
"189 379 OFFCURVE",
"135 436 OFFCURVE",
"135 521 CURVE SMOOTH",
"135 620 OFFCURVE",
"209 655 OFFCURVE",
"267 655 CURVE SMOOTH",
"389 655 OFFCURVE",
"498 498 OFFCURVE",
"498 328 CURVE SMOOTH",
"498 168 OFFCURVE",
"401 55 OFFCURVE",
"277 55 CURVE SMOOTH",
"206 55 OFFCURVE",
"144 88 OFFCURVE",
"117 136 CURVE",
"60 101 LINE"
);
}
);
width = 640;
}
);
unicode = 1E2F2;
script = wcho;
category = Number;
subCategory = "Decimal Digit";
},
{
glyphname = "three-wcho";
production = u1E2F3;
lastChange = "2019-10-24 14:07:37 +0000";
layers = (
{
layerId = "86E3F33C-DCF9-4D35-94DC-2B1D8FB2A627";
paths = (
{
closed = 1;
nodes = (
"588 53 OFFCURVE",
"579 50 OFFCURVE",
"570 50 CURVE SMOOTH",
"531 50 OFFCURVE",
"494 102 OFFCURVE",
"485 250 CURVE",
"492 286 OFFCURVE",
"496 325 OFFCURVE",
"496 370 CURVE SMOOTH",
"496 587 OFFCURVE",
"403 720 OFFCURVE",
"263 720 CURVE SMOOTH",
"162 720 OFFCURVE",
"88 650 OFFCURVE",
"50 512 CURVE",
"116 491 LINE",
"143 602 OFFCURVE",
"195 655 OFFCURVE",
"259 655 CURVE SMOOTH",
"348 655 OFFCURVE",
"424 551 OFFCURVE",
"424 364 CURVE SMOOTH",
"424 180 OFFCURVE",
"352 55 OFFCURVE",
"248 55 CURVE SMOOTH",
"185 55 OFFCURVE",
"122 101 OFFCURVE",
"122 229 CURVE",
"50 229 LINE",
"50 53 OFFCURVE",
"151 -10 OFFCURVE",
"249 -10 CURVE SMOOTH",
"323 -10 OFFCURVE",
"397 34 OFFCURVE",
"453 145 CURVE",
"427 159 LINE",
"449 29 OFFCURVE",
"511 -10 OFFCURVE",
"571 -10 CURVE SMOOTH",
"593 -10 OFFCURVE",
"610 -5 OFFCURVE",
"625 5 CURVE",
"595 57 LINE"
);
}
);
width = 655;
}
);
unicode = 1E2F3;
script = wcho;
category = Number;
subCategory = "Decimal Digit";
},
{
glyphname = "four-wcho";
production = u1E2F4;
lastChange = "2019-10-24 14:07:37 +0000";
layers = (
{
layerId = "86E3F33C-DCF9-4D35-94DC-2B1D8FB2A627";
paths = (
{
closed = 1;
nodes = (
"571 720 LINE",
"282 576 LINE",
"312 518 LINE",
"553 638 LINE",
"535 642 LINE",
"305 140 LINE SMOOTH",
"282 89 OFFCURVE",
"258 49 OFFCURVE",
"204 49 CURVE SMOOTH",
"163 49 OFFCURVE",
"122 79 OFFCURVE",
"122 131 CURVE SMOOTH",
"122 183 OFFCURVE",
"161 207 OFFCURVE",
"224 207 CURVE",
"224 272 LINE",
"119 272 OFFCURVE",
"50 219 OFFCURVE",
"50 127 CURVE SMOOTH",
"50 45 OFFCURVE",
"108 -16 OFFCURVE",
"207 -16 CURVE SMOOTH",
"291 -16 OFFCURVE",
"332 40 OFFCURVE",
"370 122 CURVE SMOOTH",
"613 652 LINE"
);
}
);
width = 623;
}
);
unicode = 1E2F4;
script = wcho;
category = Number;
subCategory = "Decimal Digit";
},
{
glyphname = "five-wcho";
production = u1E2F5;
lastChange = "2019-10-24 14:07:37 +0000";
layers = (
{
layerId = "86E3F33C-DCF9-4D35-94DC-2B1D8FB2A627";
paths = (
{
closed = 1;
nodes = (
"149 88 LINE",
"132 121 OFFCURVE",
"122 160 OFFCURVE",
"122 186 CURVE SMOOTH",
"122 262 OFFCURVE",
"191 310 OFFCURVE",
"295 310 CURVE SMOOTH",
"407 310 OFFCURVE",
"465 257 OFFCURVE",
"465 185 CURVE SMOOTH",
"465 129 OFFCURVE",
"430 65 OFFCURVE",
"328 65 CURVE",
"328 710 LINE",
"256 710 LINE",
"256 0 LINE",
"317 0 LINE",
"465 0 OFFCURVE",
"537 104 OFFCURVE",
"537 191 CURVE SMOOTH",
"537 292 OFFCURVE",
"444 375 OFFCURVE",
"294 375 CURVE SMOOTH",
"151 375 OFFCURVE",
"50 299 OFFCURVE",
"50 181 CURVE SMOOTH",
"50 143 OFFCURVE",
"61 104 OFFCURVE",
"83 61 CURVE"
);
}
);
width = 587;
}
);
unicode = 1E2F5;
script = wcho;
category = Number;
subCategory = "Decimal Digit";
},
{
glyphname = "six-wcho";
production = u1E2F6;
lastChange = "2019-10-24 14:07:37 +0000";
layers = (
{
layerId = "86E3F33C-DCF9-4D35-94DC-2B1D8FB2A627";
paths = (
{
closed = 1;
nodes = (
"95 596 LINE",
"122 620 OFFCURVE",
"172 655 OFFCURVE",
"236 655 CURVE SMOOTH",
"301 655 OFFCURVE",
"393 619 OFFCURVE",
"393 497 CURVE SMOOTH",
"393 383 OFFCURVE",
"318 325 OFFCURVE",
"224 325 CURVE SMOOTH",
"197 325 OFFCURVE",
"172 330 OFFCURVE",
"149 337 CURVE",
"149 0 LINE",
"221 0 LINE",
"221 264 LINE",
"362 264 OFFCURVE",
"465 357 OFFCURVE",
"465 497 CURVE SMOOTH",
"465 640 OFFCURVE",
"362 720 OFFCURVE",
"243 720 CURVE SMOOTH",
"160 720 OFFCURVE",
"98 679 OFFCURVE",
"60 650 CURVE"
);
}
);
width = 515;
}
);
unicode = 1E2F6;
script = wcho;
category = Number;
subCategory = "Decimal Digit";
},
{
glyphname = "seven-wcho";
production = u1E2F7;
lastChange = "2019-10-24 14:07:37 +0000";
layers = (
{
layerId = "86E3F33C-DCF9-4D35-94DC-2B1D8FB2A627";
paths = (
{
closed = 1;
nodes = (
"219 163 LINE",
"216 163 LINE",
"216 710 LINE",
"50 710 LINE",
"50 645 LINE",
"144 645 LINE",
"144 0 LINE",
"216 0 LINE",
"542 710 LINE",
"470 710 LINE"
);
}
);
width = 552;
}
);
unicode = 1E2F7;
script = wcho;
category = Number;
subCategory = "Decimal Digit";
},
{
glyphname = "eight-wcho";
production = u1E2F8;
lastChange = "2019-10-24 14:07:37 +0000";
layers = (
{
layerId = "86E3F33C-DCF9-4D35-94DC-2B1D8FB2A627";
paths = (
{
closed = 1;
nodes = (
"416 429 LINE",
"416 710 LINE",
"344 710 LINE",
"344 429 LINE",
"30 429 LINE",
"30 364 LINE",
"328 0 LINE",
"416 0 LINE",
"416 364 LINE",
"529 364 LINE",
"529 429 LINE"
);
},
{
closed = 1;
nodes = (
"344 83 LINE",
"115 364 LINE",
"344 364 LINE"
);
}
);
width = 579;
}
);
unicode = 1E2F8;
script = wcho;
category = Number;
subCategory = "Decimal Digit";
},
{
glyphname = "nine-wcho";
production = u1E2F9;
lastChange = "2019-10-24 14:07:37 +0000";
layers = (
{
layerId = "86E3F33C-DCF9-4D35-94DC-2B1D8FB2A627";
paths = (
{
closed = 1;
nodes = (
"55 314 LINE",
"140 342 OFFCURVE",
"238 350 OFFCURVE",
"277 350 CURVE SMOOTH",
"384 350 OFFCURVE",
"442 281 OFFCURVE",
"442 189 CURVE SMOOTH",
"442 122 OFFCURVE",
"408 53 OFFCURVE",
"331 53 CURVE SMOOTH",
"272 53 OFFCURVE",
"240 101 OFFCURVE",
"240 170 CURVE SMOOTH",
"240 318 OFFCURVE",
"382 448 OFFCURVE",
"553 448 CURVE",
"553 513 LINE",
"339 513 OFFCURVE",
"168 348 OFFCURVE",
"168 170 CURVE SMOOTH",
"168 66 OFFCURVE",
"228 -10 OFFCURVE",
"331 -10 CURVE SMOOTH",
"451 -10 OFFCURVE",
"514 92 OFFCURVE",
"514 198 CURVE SMOOTH",
"514 334 OFFCURVE",
"416 406 OFFCURVE",
"296 408 CURVE SMOOTH",
"238 409 OFFCURVE",
"163 394 OFFCURVE",
"115 383 CURVE",
"110 373 LINE",
"242 468 OFFCURVE",
"315 525 OFFCURVE",
"315 610 CURVE SMOOTH",
"315 688 OFFCURVE",
"253 720 OFFCURVE",
"136 720 CURVE",
"136 655 LINE",
"202 655 OFFCURVE",
"243 647 OFFCURVE",
"243 601 CURVE SMOOTH",
"243 548 OFFCURVE",
"187 488 OFFCURVE",
"30 365 CURVE"
);
}
);
width = 588;
}
);
unicode = 1E2F9;
script = wcho;
category = Number;
subCategory = "Decimal Digit";
},
{
glyphname = "ngunSign-wcho";
production = u1E2FF;
lastChange = "2019-10-24 14:07:37 +0000";
layers = (
{
layerId = "86E3F33C-DCF9-4D35-94DC-2B1D8FB2A627";
paths = (
{
closed = 1;
nodes = (
"2 10 LINE",
"44 -30 OFFCURVE",
"81 -40 OFFCURVE",
"113 -40 CURVE SMOOTH",
"186 -40 OFFCURVE",
"246 8 OFFCURVE",
"264 95 CURVE SMOOTH",
"328 399 LINE SMOOTH",
"339 452 OFFCURVE",
"372 493 OFFCURVE",
"431 493 CURVE SMOOTH",
"471 493 OFFCURVE",
"496 474 OFFCURVE",
"496 440 CURVE SMOOTH",
"496 407 OFFCURVE",
"474 375 OFFCURVE",
"383 375 CURVE SMOOTH",
"267 375 OFFCURVE",
"200 433 OFFCURVE",
"200 530 CURVE SMOOTH",
"200 630 OFFCURVE",
"272 685 OFFCURVE",
"394 685 CURVE SMOOTH",
"470 685 OFFCURVE",
"508 662 OFFCURVE",
"540 638 CURVE",
"578 691 LINE",
"540 717 OFFCURVE",
"487 750 OFFCURVE",
"393 750 CURVE SMOOTH",
"236 750 OFFCURVE",
"128 660 OFFCURVE",
"128 523 CURVE SMOOTH",
"128 386 OFFCURVE",
"233 310 OFFCURVE",
"379 310 CURVE SMOOTH",
"512 310 OFFCURVE",
"568 377 OFFCURVE",
"568 444 CURVE SMOOTH",
"568 514 OFFCURVE",
"509 558 OFFCURVE",
"433 558 CURVE SMOOTH",
"332 558 OFFCURVE",
"281 479 OFFCURVE",
"265 405 CURVE SMOOTH",
"202 120 LINE SMOOTH",
"185 44 OFFCURVE",
"150 25 OFFCURVE",
"119 25 CURVE SMOOTH",
"91 25 OFFCURVE",
"66 41 OFFCURVE",
"45 59 CURVE"
);
},
{
closed = 1;
nodes = (
"514 181 LINE",
"514 246 LINE",
"55 246 LINE",
"55 181 LINE"
);
}
);
width = 611;
}
);
unicode = 1E2FF;
script = wcho;
category = Symbol;
subCategory = Currency;
},
{
glyphname = period;
lastChange = "2019-10-24 14:07:37 +0000";
layers = (
{
layerId = "86E3F33C-DCF9-4D35-94DC-2B1D8FB2A627";
paths = (
{
closed = 1;
nodes = (
"100 6 OFFCURVE",
"127 -14 OFFCURVE",
"161 -14 CURVE SMOOTH",
"195 -14 OFFCURVE",
"224 6 OFFCURVE",
"224 54 CURVE SMOOTH",
"224 103 OFFCURVE",
"195 121 OFFCURVE",
"161 121 CURVE SMOOTH",
"127 121 OFFCURVE",
"100 103 OFFCURVE",
"100 54 CURVE SMOOTH"
);
}
);
width = 291;
}
);
leftKerningGroup = period.right;
rightKerningGroup = period.left;
unicode = 002E;
script = "";
category = Punctuation;
subCategory = Other;
},
{
glyphname = period.wcho;
production = period.wcho;
lastChange = "2019-10-24 14:07:37 +0000";
layers = (
{
layerId = "86E3F33C-DCF9-4D35-94DC-2B1D8FB2A627";
paths = (
{
closed = 1;
nodes = (
"100 6 OFFCURVE",
"127 -14 OFFCURVE",
"161 -14 CURVE SMOOTH",
"195 -14 OFFCURVE",
"224 6 OFFCURVE",
"224 54 CURVE SMOOTH",
"224 103 OFFCURVE",
"195 121 OFFCURVE",
"161 121 CURVE SMOOTH",
"127 121 OFFCURVE",
"100 103 OFFCURVE",
"100 54 CURVE SMOOTH"
);
}
);
width = 291;
}
);
leftKerningGroup = period.right;
rightKerningGroup = period.left;
script = "";
category = Punctuation;
subCategory = Other;
},
{
glyphname = comma;
lastChange = "2019-10-24 14:07:37 +0000";
layers = (
{
layerId = "86E3F33C-DCF9-4D35-94DC-2B1D8FB2A627";
paths = (
{
closed = 1;
nodes = (
"185 116 LINE",
"91 116 LINE",
"81 46 OFFCURVE",
"60 -53 OFFCURVE",
"41 -129 CURVE",
"106 -129 LINE",
"138 -57 OFFCURVE",
"174 34 OFFCURVE",
"192 105 CURVE"
);
}
);
width = 291;
}
);
leftKerningGroup = period.right;
rightKerningGroup = period.left;
unicode = 002C;
script = "";
category = Punctuation;
subCategory = Other;
},
{
glyphname = comma.wcho;
production = comma.wcho;
lastChange = "2019-10-24 14:07:37 +0000";
layers = (
{
layerId = "86E3F33C-DCF9-4D35-94DC-2B1D8FB2A627";
paths = (
{
closed = 1;
nodes = (
"185 116 LINE",
"91 116 LINE",
"81 46 OFFCURVE",
"60 -53 OFFCURVE",
"41 -129 CURVE",
"106 -129 LINE",
"138 -57 OFFCURVE",
"174 34 OFFCURVE",
"192 105 CURVE"
);
}
);
width = 268;
}
);
leftKerningGroup = period.right;
rightKerningGroup = period.left;
script = "";
category = Punctuation;
subCategory = Other;
},
{
glyphname = slash;
lastChange = "2019-10-24 14:07:37 +0000";
layers = (
{
layerId = "86E3F33C-DCF9-4D35-94DC-2B1D8FB2A627";
paths = (
{
closed = 1;
nodes = (
"276 714 LINE",
"10 0 LINE",
"96 0 LINE",
"362 714 LINE"
);
}
);
width = 372;
}
);
unicode = 002F;
script = "";
category = Punctuation;
subCategory = Other;
},
{
glyphname = slash.wcho;
production = slash.wcho;
lastChange = "2019-10-24 14:07:37 +0000";
layers = (
{
layerId = "86E3F33C-DCF9-4D35-94DC-2B1D8FB2A627";
paths = (
{
closed = 1;
nodes = (
"362 714 LINE",
"286 714 LINE",
"20 0 LINE",
"96 0 LINE"
);
}
);
width = 372;
}
);
script = "";
category = Punctuation;
subCategory = Other;
},
{
glyphname = backslash;
lastChange = "2019-10-24 14:07:37 +0000";
layers = (
{
layerId = "86E3F33C-DCF9-4D35-94DC-2B1D8FB2A627";
paths = (
{
closed = 1;
nodes = (
"10 714 LINE",
"276 0 LINE",
"363 0 LINE",
"96 714 LINE"
);
}
);
width = 372;
}
);
unicode = 005C;
script = "";
category = Punctuation;
subCategory = Other;
},
{
glyphname = backslash.wcho;
production = backslash.wcho;
lastChange = "2019-10-24 14:07:37 +0000";
layers = (
{
layerId = "86E3F33C-DCF9-4D35-94DC-2B1D8FB2A627";
paths = (
{
closed = 1;
nodes = (
"10 714 LINE",
"276 0 LINE",
"353 0 LINE",
"86 714 LINE"
);
}
);
width = 362;
}
);
script = "";
category = Punctuation;
subCategory = Other;
},
{
glyphname = parenleft;
lastChange = "2019-10-24 14:07:37 +0000";
layers = (
{
layerId = "86E3F33C-DCF9-4D35-94DC-2B1D8FB2A627";
paths = (
{
closed = 1;
nodes = (
"40 113 OFFCURVE",
"86 -41 OFFCURVE",
"187 -158 CURVE",
"269 -158 LINE",
"177 -33 OFFCURVE",
"129 120 OFFCURVE",
"129 275 CURVE SMOOTH",
"129 433 OFFCURVE",
"177 589 OFFCURVE",
"270 714 CURVE",
"187 714 LINE",
"86 593 OFFCURVE",
"40 437 OFFCURVE",
"40 274 CURVE SMOOTH"
);
}
);
width = 300;
}
);
rightKerningGroup = paren.left;
unicode = 0028;
script = "";
category = Punctuation;
subCategory = Parenthesis;
},
{
glyphname = parenleft.wcho;
production = parenleft.wcho;
lastChange = "2019-10-24 14:07:37 +0000";
layers = (
{
layerId = "86E3F33C-DCF9-4D35-94DC-2B1D8FB2A627";
paths = (
{
closed = 1;
nodes = (
"40 199 OFFCURVE",
"86 45 OFFCURVE",
"187 -72 CURVE",
"259 -72 LINE",
"167 53 OFFCURVE",
"119 206 OFFCURVE",
"119 361 CURVE SMOOTH",
"119 519 OFFCURVE",
"167 675 OFFCURVE",
"260 800 CURVE",
"187 800 LINE",
"86 679 OFFCURVE",
"40 523 OFFCURVE",
"40 360 CURVE SMOOTH"
);
}
);
width = 290;
}
);
rightKerningGroup = paren.left;
script = "";
category = Punctuation;
subCategory = Parenthesis;
},
{
glyphname = parenright;
lastChange = "2019-10-24 14:07:37 +0000";
layers = (
{
layerId = "86E3F33C-DCF9-4D35-94DC-2B1D8FB2A627";
paths = (
{
closed = 1;
nodes = (
"260 437 OFFCURVE",
"214 593 OFFCURVE",
"113 714 CURVE",
"30 714 LINE",
"123 589 OFFCURVE",
"171 433 OFFCURVE",
"171 275 CURVE SMOOTH",
"171 120 OFFCURVE",
"123 -33 OFFCURVE",
"31 -158 CURVE",
"113 -158 LINE",
"214 -41 OFFCURVE",
"260 113 OFFCURVE",
"260 274 CURVE SMOOTH"
);
}
);
width = 300;
}
);
leftKerningGroup = Paren.right;
unicode = 0029;
script = "";
category = Punctuation;
subCategory = Parenthesis;
},
{
glyphname = parenright.wcho;
production = parenright.wcho;
lastChange = "2019-10-24 14:07:37 +0000";
layers = (
{
layerId = "86E3F33C-DCF9-4D35-94DC-2B1D8FB2A627";
paths = (
{
closed = 1;
nodes = (
"250 523 OFFCURVE",
"204 679 OFFCURVE",
"103 800 CURVE",
"30 800 LINE",
"123 675 OFFCURVE",
"171 519 OFFCURVE",
"171 361 CURVE SMOOTH",
"171 206 OFFCURVE",
"123 53 OFFCURVE",
"31 -72 CURVE",
"103 -72 LINE",
"204 45 OFFCURVE",
"250 199 OFFCURVE",
"250 360 CURVE SMOOTH"
);
}
);
width = 290;
}
);
leftKerningGroup = Paren.right;
script = "";
category = Punctuation;
subCategory = Parenthesis;
},
{
glyphname = braceleft;
lastChange = "2019-10-24 14:07:37 +0000";
layers = (
{
layerId = "86E3F33C-DCF9-4D35-94DC-2B1D8FB2A627";
paths = (
{
closed = 1;
nodes = (
"348 -86 LINE",
"277 -86 OFFCURVE",
"237 -58 OFFCURVE",
"237 7 CURVE SMOOTH",
"237 154 LINE SMOOTH",
"237 222 OFFCURVE",
"202 263 OFFCURVE",
"128 276 CURVE",
"128 282 LINE",
"201 295 OFFCURVE",
"237 336 OFFCURVE",
"237 404 CURVE SMOOTH",
"237 548 LINE SMOOTH",
"237 613 OFFCURVE",
"279 640 OFFCURVE",
"348 642 CURVE",
"348 714 LINE",
"231 714 OFFCURVE",
"150 662 OFFCURVE",
"150 556 CURVE SMOOTH",
"150 408 LINE SMOOTH",
"150 341 OFFCURVE",
"107 315 OFFCURVE",
"28 315 CURVE",
"28 242 LINE",
"107 242 OFFCURVE",
"150 216 OFFCURVE",
"150 148 CURVE SMOOTH",
"150 1 LINE SMOOTH",
"150 -106 OFFCURVE",
"225 -158 OFFCURVE",
"348 -158 CURVE"
);
}
);
width = 380;
}
);
rightKerningGroup = paren.left;
unicode = 007B;
script = "";
category = Punctuation;
subCategory = Parenthesis;
},
{
glyphname = braceleft.wcho;
production = braceleft.wcho;
lastChange = "2019-10-24 14:07:37 +0000";
layers = (
{
layerId = "86E3F33C-DCF9-4D35-94DC-2B1D8FB2A627";
paths = (
{
closed = 1;
nodes = (
"333 0 LINE",
"262 0 OFFCURVE",
"222 28 OFFCURVE",
"222 93 CURVE SMOOTH",
"222 240 LINE SMOOTH",
"222 308 OFFCURVE",
"197 349 OFFCURVE",
"128 362 CURVE",
"128 368 LINE",
"196 381 OFFCURVE",
"222 422 OFFCURVE",
"222 490 CURVE SMOOTH",
"222 634 LINE SMOOTH",
"222 699 OFFCURVE",
"264 726 OFFCURVE",
"333 728 CURVE",
"333 800 LINE",
"216 800 OFFCURVE",
"150 748 OFFCURVE",
"150 642 CURVE SMOOTH",
"150 494 LINE SMOOTH",
"150 427 OFFCURVE",
"107 401 OFFCURVE",
"28 401 CURVE",
"28 328 LINE",
"107 328 OFFCURVE",
"150 302 OFFCURVE",
"150 234 CURVE SMOOTH",
"150 87 LINE SMOOTH",
"150 -20 OFFCURVE",
"210 -72 OFFCURVE",
"333 -72 CURVE"
);
}
);
width = 370;
}
);
rightKerningGroup = paren.left;
script = "";
category = Punctuation;
subCategory = Parenthesis;
},
{
glyphname = braceright;
lastChange = "2019-10-24 14:07:37 +0000";
layers = (
{
layerId = "86E3F33C-DCF9-4D35-94DC-2B1D8FB2A627";
paths = (
{
closed = 1;
nodes = (
"149 -158 OFFCURVE",
"230 -106 OFFCURVE",
"230 0 CURVE SMOOTH",
"230 149 LINE SMOOTH",
"230 216 OFFCURVE",
"273 242 OFFCURVE",
"352 242 CURVE",
"352 315 LINE",
"273 315 OFFCURVE",
"230 341 OFFCURVE",
"230 409 CURVE SMOOTH",
"230 555 LINE SMOOTH",
"230 662 OFFCURVE",
"155 714 OFFCURVE",
"32 714 CURVE",
"32 642 LINE",
"103 642 OFFCURVE",
"143 614 OFFCURVE",
"143 549 CURVE SMOOTH",
"143 403 LINE SMOOTH",
"143 335 OFFCURVE",
"178 294 OFFCURVE",
"252 281 CURVE",
"252 275 LINE",
"179 262 OFFCURVE",
"143 221 OFFCURVE",
"143 153 CURVE SMOOTH",
"143 8 LINE SMOOTH",
"143 -57 OFFCURVE",
"101 -84 OFFCURVE",
"32 -86 CURVE",
"32 -158 LINE"
);
}
);
width = 380;
}
);
leftKerningGroup = Paren.right;
unicode = 007D;
script = "";
category = Punctuation;
subCategory = Parenthesis;
},
{
glyphname = braceright.wcho;
production = braceright.wcho;
lastChange = "2019-10-24 14:07:37 +0000";
layers = (
{
layerId = "86E3F33C-DCF9-4D35-94DC-2B1D8FB2A627";
paths = (
{
closed = 1;
nodes = (
"154 -72 OFFCURVE",
"220 -20 OFFCURVE",
"220 86 CURVE SMOOTH",
"220 235 LINE SMOOTH",
"220 302 OFFCURVE",
"263 328 OFFCURVE",
"342 328 CURVE",
"342 401 LINE",
"263 401 OFFCURVE",
"220 427 OFFCURVE",
"220 495 CURVE SMOOTH",
"220 641 LINE SMOOTH",
"220 748 OFFCURVE",
"160 800 OFFCURVE",
"37 800 CURVE",
"37 728 LINE",
"108 728 OFFCURVE",
"148 700 OFFCURVE",
"148 635 CURVE SMOOTH",
"148 489 LINE SMOOTH",
"148 421 OFFCURVE",
"173 380 OFFCURVE",
"242 367 CURVE",
"242 361 LINE",
"174 348 OFFCURVE",
"148 307 OFFCURVE",
"148 239 CURVE SMOOTH",
"148 94 LINE SMOOTH",
"148 29 OFFCURVE",
"106 2 OFFCURVE",
"37 0 CURVE",
"37 -72 LINE"
);
}
);
width = 370;
}
);
leftKerningGroup = Paren.right;
script = "";
category = Punctuation;
subCategory = Parenthesis;
},
{
glyphname = bracketleft;
lastChange = "2019-10-24 14:07:37 +0000";
layers = (
{
layerId = "86E3F33C-DCF9-4D35-94DC-2B1D8FB2A627";
paths = (
{
closed = 1;
nodes = (
"304 -86 LINE",
"166 -86 LINE",
"166 642 LINE",
"304 642 LINE",
"304 714 LINE",
"80 714 LINE",
"80 -158 LINE",
"304 -158 LINE"
);
}
);
width = 329;
}
);
rightKerningGroup = paren.left;
unicode = 005B;
script = "";
category = Punctuation;
subCategory = Parenthesis;
},
{
glyphname = bracketleft.wcho;
production = bracketleft.wcho;
lastChange = "2019-10-24 14:07:37 +0000";
layers = (
{
layerId = "86E3F33C-DCF9-4D35-94DC-2B1D8FB2A627";
paths = (
{
closed = 1;
nodes = (
"290 0 LINE",
"152 0 LINE",
"152 728 LINE",
"290 728 LINE",
"290 800 LINE",
"80 800 LINE",
"80 -72 LINE",
"290 -72 LINE"
);
}
);
width = 315;
}
);
rightKerningGroup = paren.left;
script = "";
category = Punctuation;
subCategory = Parenthesis;
},
{
glyphname = bracketright;
lastChange = "2019-10-24 14:07:37 +0000";
layers = (
{
layerId = "86E3F33C-DCF9-4D35-94DC-2B1D8FB2A627";
paths = (
{
closed = 1;
nodes = (
"25 -158 LINE",
"249 -158 LINE",
"249 714 LINE",
"25 714 LINE",
"25 642 LINE",
"163 642 LINE",
"163 -86 LINE",
"25 -86 LINE"
);
}
);
width = 329;
}
);
leftKerningGroup = Paren.right;
unicode = 005D;
script = "";
category = Punctuation;
subCategory = Parenthesis;
},
{
glyphname = bracketright.wcho;
production = bracketright.wcho;
lastChange = "2019-10-24 14:07:37 +0000";
layers = (
{
layerId = "86E3F33C-DCF9-4D35-94DC-2B1D8FB2A627";
paths = (
{
closed = 1;
nodes = (
"25 -72 LINE",
"235 -72 LINE",
"235 800 LINE",
"25 800 LINE",
"25 728 LINE",
"163 728 LINE",
"163 0 LINE",
"25 0 LINE"
);
}
);
width = 315;
}
);
leftKerningGroup = Paren.right;
script = "";
category = Punctuation;
subCategory = Parenthesis;
},
{
glyphname = quotedblleft;
lastChange = "2019-10-24 14:07:37 +0000";
layers = (
{
layerId = "86E3F33C-DCF9-4D35-94DC-2B1D8FB2A627";
paths = (
{
closed = 1;
nodes = (
"282 714 LINE",
"249 642 OFFCURVE",
"213 550 OFFCURVE",
"195 480 CURVE",
"202 469 LINE",
"297 469 LINE",
"307 538 OFFCURVE",
"328 637 OFFCURVE",
"347 714 CURVE"
);
},
{
closed = 1;
nodes = (
"98 714 LINE",
"65 642 OFFCURVE",
"30 550 OFFCURVE",
"12 480 CURVE",
"18 469 LINE",
"112 469 LINE",
"122 538 OFFCURVE",
"143 637 OFFCURVE",
"162 714 CURVE"
);
}
);
width = 359;
}
);
leftKerningGroup = quote.right;
rightKerningGroup = quote.left;
unicode = 201C;
script = "";
category = Punctuation;
subCategory = Quote;
},
{
glyphname = quotedblleft.wcho;
production = quotedblleft.wcho;
lastChange = "2019-10-24 14:07:37 +0000";
layers = (
{
layerId = "86E3F33C-DCF9-4D35-94DC-2B1D8FB2A627";
paths = (
{
closed = 1;
nodes = (
"282 714 LINE",
"249 642 OFFCURVE",
"213 550 OFFCURVE",
"195 480 CURVE",
"202 469 LINE",
"297 469 LINE",
"307 538 OFFCURVE",
"328 637 OFFCURVE",
"347 714 CURVE"
);
},
{
closed = 1;
nodes = (
"98 714 LINE",
"65 642 OFFCURVE",
"30 550 OFFCURVE",
"12 480 CURVE",
"18 469 LINE",
"112 469 LINE",
"122 538 OFFCURVE",
"143 637 OFFCURVE",
"162 714 CURVE"
);
}
);
width = 359;
}
);
leftKerningGroup = quote.right;
rightKerningGroup = quote.left;
script = "";
category = Punctuation;
subCategory = Quote;
},
{
glyphname = quotedblright;
lastChange = "2019-10-24 14:07:37 +0000";
layers = (
{
layerId = "86E3F33C-DCF9-4D35-94DC-2B1D8FB2A627";
paths = (
{
closed = 1;
nodes = (
"246 714 LINE",
"236 644 OFFCURVE",
"214 544 OFFCURVE",
"195 469 CURVE",
"261 469 LINE",
"293 540 OFFCURVE",
"329 632 OFFCURVE",
"347 703 CURVE",
"340 714 LINE"
);
},
{
closed = 1;
nodes = (
"61 714 LINE",
"51 644 OFFCURVE",
"31 544 OFFCURVE",
"12 469 CURVE",
"76 469 LINE",
"108 540 OFFCURVE",
"144 632 OFFCURVE",
"162 703 CURVE",
"155 714 LINE"
);
}
);
width = 359;
}
);
leftKerningGroup = quote.right;
rightKerningGroup = quote.left;
unicode = 201D;
script = "";
category = Punctuation;
subCategory = Quote;
},
{
glyphname = quotedblright.wcho;
production = quotedblright.wcho;
lastChange = "2019-10-24 14:07:37 +0000";
layers = (
{
layerId = "86E3F33C-DCF9-4D35-94DC-2B1D8FB2A627";
paths = (
{
closed = 1;
nodes = (
"246 714 LINE",
"236 644 OFFCURVE",
"214 544 OFFCURVE",
"195 469 CURVE",
"261 469 LINE",
"293 540 OFFCURVE",
"329 632 OFFCURVE",
"347 703 CURVE",
"340 714 LINE"
);
},
{
closed = 1;
nodes = (
"61 714 LINE",
"51 644 OFFCURVE",
"31 544 OFFCURVE",
"12 469 CURVE",
"76 469 LINE",
"108 540 OFFCURVE",
"144 632 OFFCURVE",
"162 703 CURVE",
"155 714 LINE"
);
}
);
width = 359;
}
);
leftKerningGroup = quote.right;
rightKerningGroup = quote.left;
script = "";
category = Punctuation;
subCategory = Quote;
},
{
glyphname = quotedbl;
lastChange = "2019-10-24 14:07:37 +0000";
layers = (
{
layerId = "86E3F33C-DCF9-4D35-94DC-2B1D8FB2A627";
paths = (
{
closed = 1;
nodes = (
"160 714 LINE",
"65 714 LINE",
"85 456 LINE",
"140 456 LINE"
);
},
{
closed = 1;
nodes = (
"343 714 LINE",
"248 714 LINE",
"268 456 LINE",
"323 456 LINE"
);
}
);
width = 408;
}
);
leftKerningGroup = quote.right;
rightKerningGroup = quote.left;
unicode = 0022;
script = "";
category = Punctuation;
subCategory = Quote;
},
{
glyphname = quotedbl.wcho;
production = quotedbl.wcho;
lastChange = "2019-10-24 14:07:37 +0000";
layers = (
{
layerId = "86E3F33C-DCF9-4D35-94DC-2B1D8FB2A627";
paths = (
{
closed = 1;
nodes = (
"160 714 LINE",
"65 714 LINE",
"85 456 LINE",
"140 456 LINE"
);
},
{
closed = 1;
nodes = (
"343 714 LINE",
"248 714 LINE",
"268 456 LINE",
"323 456 LINE"
);
}
);
width = 408;
}
);
leftKerningGroup = quote.right;
rightKerningGroup = quote.left;
script = "";
category = Punctuation;
subCategory = Quote;
},
{
glyphname = quotesingle;
lastChange = "2019-10-24 14:07:37 +0000";
layers = (
{
layerId = "86E3F33C-DCF9-4D35-94DC-2B1D8FB2A627";
paths = (
{
closed = 1;
nodes = (
"160 714 LINE",
"65 714 LINE",
"85 456 LINE",
"140 456 LINE"
);
}
);
width = 225;
}
);
leftKerningGroup = quote.right;
rightKerningGroup = quote.left;
unicode = 0027;
script = "";
category = Punctuation;
subCategory = Quote;
},
{
glyphname = quotesingle.wcho;
production = quotesingle.wcho;
lastChange = "2019-10-24 14:07:37 +0000";
layers = (
{
layerId = "86E3F33C-DCF9-4D35-94DC-2B1D8FB2A627";
paths = (
{
closed = 1;
nodes = (
"160 714 LINE",
"65 714 LINE",
"85 456 LINE",
"140 456 LINE"
);
}
);
width = 225;
}
);
leftKerningGroup = quote.right;
rightKerningGroup = quote.left;
script = "";
category = Punctuation;
subCategory = Quote;
},
{
glyphname = hyphen;
lastChange = "2019-10-24 14:07:37 +0000";
layers = (
{
layerId = "86E3F33C-DCF9-4D35-94DC-2B1D8FB2A627";
paths = (
{
closed = 1;
nodes = (
"282 229 LINE",
"282 307 LINE",
"40 307 LINE",
"40 229 LINE"
);
}
);
width = 322;
}
);
leftKerningGroup = hyphen.right;
rightKerningGroup = hyphen.left;
unicode = 002D;
script = "";
category = Punctuation;
subCategory = Dash;
},
{
glyphname = hyphen.wcho;
production = hyphen.wcho;
lastChange = "2019-10-24 14:07:37 +0000";
layers = (
{
layerId = "86E3F33C-DCF9-4D35-94DC-2B1D8FB2A627";
paths = (
{
closed = 1;
nodes = (
"40 318 LINE",
"282 318 LINE",
"282 396 LINE",
"40 396 LINE"
);
}
